<?xml version="1.0" encoding="UTF-8"?>

<!-- Altered-Icons-Library: (https://github.com/dot-alter/Altered-Icons-Pack) -->

<svg xmlns="http://www.w3.org/2000/svg" xmlns:svg="http://www.w3.org/2000/svg" xmlns:xlink="http://www.w3.org/1999/xlink" width="24" height="24" viewBox="0 0 24.00 24.00" preserveAspectRatio="xMidYMid meet">
	<g transform="matrix(1, 0, 0, 1, 12.004766464233398, 12.004764556884766)">
		<path transform="matrix(1, 0, 0, 1, 59.995216369628906, 35.99999237060547)" d="M-67.01,-42.98 C-68.26,-42.57 -69.09,-41.42 -69.45,-39.89 C-70.18,-37.31 -70.18,-34.7 -69.46,-32.12 C-69.13,-30.64 -68.3,-29.51 -67.04,-29.02 C-62.37,-27.15 -57.62,-27.15 -52.95,-29.03 Q-51.01,-30.09 -50.55,-32.09 C-49.81,-34.68 -49.82,-37.3 -50.55,-39.89 C-50.91,-41.42 -51.74,-42.57 -52.99,-42.98 C-57.12,-44.37 -62.88,-44.37 -67.01,-42.98 ZM-53.47,-41.56 Q-52.54,-41.15 -52,-39.53 Q-51,-36 -51.99,-32.51 C-52.37,-31.32 -52.9,-30.69 -53.53,-30.42 C-57.87,-28.67 -62.14,-28.67 -66.49,-30.42 C-66.49,-30.42 -66.5,-30.42 -66.5,-30.42 Q-67.65,-30.87 -68,-32.45 Q-69,-36 -68.01,-39.5 C-68,-39.51 -68,-39.52 -68,-39.53 Q-67.65,-41.13 -66.53,-41.56 C-62.82,-42.81 -57.18,-42.81 -53.47,-41.56 ZM-65.16,-39.99 C-64.96,-40.07 -64.61,-40.07 -64.37,-39.89 L-64.37,-39.89 L-64.37,-39.89 C-63.56,-39.25 -62.78,-38.55 -62.03,-37.8 C-62.03,-37.8 -62.03,-37.8 -62.03,-37.8 L-62.02,-37.79 C-61.46,-37.26 -61.11,-36.9 -60.95,-36.64 C-60.95,-36.64 -60.95,-36.64 -60.95,-36.64 L-60.94,-36.64 C-60.94,-36.64 -60.95,-36.64 -60.95,-36.64 C-60.68,-36.24 -60.68,-35.76 -60.95,-35.37 C-60.95,-35.37 -60.95,-35.37 -60.95,-35.37 L-60.95,-35.36 C-60.95,-35.36 -60.95,-35.36 -60.95,-35.37 C-61.12,-35.1 -61.47,-34.74 -62.03,-34.21 C-62.79,-33.46 -63.57,-32.76 -64.37,-32.12 L-64.37,-32.12 L-64.37,-32.12 C-64.6,-31.95 -64.9,-31.91 -65.17,-32.02 L-65.17,-32.02 L-65.18,-32.03 C-65.51,-32.19 -65.77,-32.45 -65.93,-32.78 L-65.94,-32.79 L-65.94,-32.79 C-66.05,-33.06 -66.01,-33.36 -65.84,-33.58 L-65.84,-33.59 C-65.2,-34.39 -64.5,-35.18 -63.74,-35.93 C-63.68,-36 -63.7,-36.04 -63.74,-36.08 C-64.49,-36.83 -65.19,-37.61 -65.83,-38.42 L-65.83,-38.42 C-66.01,-38.65 -66.04,-38.95 -65.93,-39.22 L-65.93,-39.22 L-65.93,-39.23 C-65.77,-39.56 -65.51,-39.82 -65.17,-39.98 L-65.17,-39.99 L-65.16,-39.99 ZM-58.51,-35.17 C-59.34,-35.17 -60.01,-34.49 -60.01,-33.67 C-60.01,-32.84 -59.34,-32.17 -58.51,-32.17 L-55.51,-32.17 C-54.68,-32.17 -54.01,-32.84 -54.01,-33.67 C-54.01,-34.49 -54.68,-35.17 -55.51,-35.17 L-58.51,-35.17 Z" style="fill:#F1F1F1;" />
	</g>
</svg>