<?xml version="1.0" encoding="UTF-8"?>

<!-- Altered-Icons: (https://github.com/dot-alter/Altered-Icons-Pack) -->

<svg xmlns="http://www.w3.org/2000/svg" xmlns:svg="http://www.w3.org/2000/svg" xmlns:xlink="http://www.w3.org/1999/xlink" width="24" height="24" viewBox="0 0 24 24" preserveAspectRatio="xMidYMid meet">
	<g transform="matrix(1, 0, 0, 1, 12, 12)">
		<path transform="matrix(1, 0, 0, 1, 59.999996185302734, 36.004764556884766)" d="M-60,-46.02 C-61.62,-46.02 -63.06,-45.67 -64.08,-44.64 C-65.09,-43.62 -65.3,-41.81 -65.11,-40.29 C-65.11,-40.28 -65.84,-40.12 -66.21,-40.02 C-67.52,-39.64 -68.41,-38.51 -68.65,-37.02 C-69,-35.31 -69,-33.63 -68.65,-32.02 C-68.65,-32.01 -68.65,-32.01 -68.65,-32 C-68.22,-30.29 -67.39,-29.25 -66.17,-28.89 C-62.07,-27.69 -57.94,-27.69 -53.84,-28.89 C-52.45,-29.34 -51.63,-30.38 -51.37,-32 C-51.36,-32.01 -51.36,-32.01 -51.36,-32.02 C-51.01,-33.63 -51.01,-35.31 -51.36,-37.02 C-51.61,-38.5 -52.49,-39.64 -53.81,-40.02 C-54.17,-40.12 -54.53,-40.16 -54.88,-40.25 C-54.88,-40.26 -54.88,-40.28 -54.88,-40.29 C-54.68,-41.81 -54.91,-43.62 -55.92,-44.64 C-56.94,-45.67 -58.38,-46.02 -60,-46.02 ZM-60,-43.02 C-58.35,-43.02 -57.66,-42.15 -57.83,-40.78 C-57.83,-40.77 -57.83,-40.76 -57.83,-40.74 Q-60,-41 -62.09,-40.75 C-62.09,-40.76 -62.09,-40.77 -62.09,-40.78 C-62.27,-42.15 -61.65,-43.02 -60,-43.02 ZM-54.22,-38.57 C-53.41,-38.34 -53.02,-37.88 -52.83,-36.77 C-52.83,-36.76 -52.83,-36.75 -52.83,-36.75 C-52.52,-35.21 -52.52,-33.75 -52.83,-32.34 C-53.12,-31.11 -53.59,-30.55 -54.28,-30.32 C-58.11,-29.21 -61.91,-29.21 -65.73,-30.32 C-66.42,-30.55 -66.89,-31.11 -67.18,-32.34 L-67.18,-32.34 C-67.49,-33.75 -67.49,-35.21 -67.18,-36.75 C-67.18,-36.76 -67.18,-36.76 -67.18,-36.77 C-66.99,-37.88 -66.6,-38.35 -65.79,-38.57 C-61.93,-39.68 -58.07,-39.68 -54.22,-38.57 Z" fill-rule="evenodd" style="fill:#F1F1F1;" />
	</g>
</svg>