<?xml version="1.0" encoding="UTF-8"?>

<!-- Altered-Icons-Library: (https://github.com/dot-alter/Altered-Icons-Pack) -->

<svg xmlns="http://www.w3.org/2000/svg" xmlns:svg="http://www.w3.org/2000/svg" xmlns:xlink="http://www.w3.org/1999/xlink" width="24" height="24" viewBox="0 0 24 24" preserveAspectRatio="xMidYMid meet">
	<g transform="matrix(1, 0, 0, 1, 12.002388000488281, 12.00238037109375)">
		<path transform="matrix(1, 0, 0, 1, 60.741851806640625, 35.96907424926758)" d="M-63.89,-45.45 C-65.42,-45.08 -66.57,-44.25 -66.98,-43 C-67.08,-42.72 -67.12,-42.38 -67.2,-42.09 C-67.49,-42.04 -67.78,-41.96 -68.06,-41.87 C-68.82,-41.62 -69.27,-40.73 -69.02,-39.98 C-68.9,-39.6 -68.63,-39.29 -68.28,-39.11 C-68.13,-39.03 -67.98,-38.99 -67.82,-38.97 C-67.88,-38.49 -67.89,-38 -67.92,-37.5 C-67.77,-37.59 -68.65,-37.44 -69.06,-37.07 C-69.35,-36.79 -69.51,-36.41 -69.51,-36.02 C-69.51,-35.62 -69.36,-35.23 -69.08,-34.95 C-68.84,-34.63 -68.08,-34.45 -67.92,-34.5 C-67.89,-33.99 -67.88,-33.47 -67.81,-32.97 C-68.08,-32.93 -68.34,-32.82 -68.55,-32.64 C-68.86,-32.38 -69.05,-32.01 -69.08,-31.62 C-69.15,-30.79 -68.53,-30.07 -67.71,-30 C-67.54,-29.99 -67.38,-29.98 -67.21,-29.97 C-67.13,-29.65 -67.09,-29.29 -66.98,-28.99 C-66.57,-27.74 -65.42,-26.91 -63.89,-26.54 L-63.89,-26.54 L-63.89,-26.54 L-63.89,-26.54 L-63.89,-26.54 L-63.88,-26.54 L-63.88,-26.54 L-63.88,-26.54 C-61.3,-25.81 -58.69,-25.81 -56.11,-26.54 L-56.11,-26.54 L-56.11,-26.54 C-56.1,-26.54 -56.1,-26.54 -56.1,-26.54 C-54.58,-26.91 -53.43,-27.73 -53.01,-28.98 C-51.62,-33.11 -51.62,-38.88 -53.01,-43 C-53.43,-44.26 -54.58,-45.08 -56.11,-45.45 C-57.8,-45.81 -60.06,-46.35 -63.89,-45.45 ZM-59.59,-44.48 C-58.56,-44.45 -57.53,-44.3 -56.5,-44 C-56.49,-44 -56.48,-44 -56.46,-43.99 C-55.23,-43.7 -54.67,-43.23 -54.43,-42.53 L-54.43,-42.53 C-53.18,-38.81 -53.18,-33.17 -54.43,-29.46 L-54.43,-29.46 C-54.67,-28.76 -55.23,-28.29 -56.46,-27.99 C-56.48,-27.99 -56.49,-27.99 -56.5,-27.99 C-58.56,-27.4 -60.61,-27.36 -62.68,-27.81 C-63.42,-33.27 -63.42,-38.72 -62.68,-44.18 C-61.64,-44.4 -60.61,-44.51 -59.59,-44.48 ZM-60.94,-39.83 C-61.36,-39.79 -61.66,-39.42 -61.62,-39.01 C-61.57,-38.59 -61.21,-38.29 -60.79,-38.33 C-59.57,-38.46 -58.08,-38.43 -56.33,-38.26 C-55.92,-38.22 -55.55,-38.52 -55.51,-38.93 C-55.47,-39.33 -55.79,-39.71 -56.19,-39.75 C-58,-39.93 -59.58,-39.96 -60.94,-39.83 ZM-60.87,-36.75 C-61.28,-36.75 -61.62,-36.42 -61.62,-36 C-61.62,-35.59 -61.28,-35.25 -60.87,-35.25 L-56.17,-35.25 C-55.76,-35.25 -55.42,-35.59 -55.42,-36 C-55.42,-36.42 -55.76,-36.75 -56.17,-36.75 L-60.87,-36.75 ZM-56.27,-33.75 Q-58.31,-33.48 -60.77,-33.65 C-61.18,-33.71 -61.56,-33.42 -61.61,-33.01 C-61.67,-32.6 -61.38,-32.22 -60.97,-32.17 C-59.71,-32 -58.13,-32.04 -56.18,-32.26 C-55.78,-32.3 -55.47,-32.69 -55.51,-33.09 C-55.56,-33.48 -55.89,-33.76 -56.27,-33.75 Z" fill-rule="evenodd" style="fill:#F1F1F1;" />
	</g>
</svg>