<svg
  fill="none"
  stroke="currentColor"
  stroke-linecap="round"
  stroke-linejoin="round"
  stroke-width="1.5"
  viewBox="0 0 24 24"
  width="24"
  height="24">
  <g>
    <path stroke-width="1.502" d="M18.103 9.026q.076 1.34-.104 2.974 2.002.538 2.002 2.512c0 2.04-3.003 2.484-8 2.484-5.005 0-7.999-.397-7.999-2.484q0-1.955 2.003-2.512-1.01-8.963 5.997-9c.33 0 .699.018 1.001.056"/>
    <path d="M9.53 20q.79 1 2.47 1t2.47-1M16 6c.567.568 1.433.568 2 0s.568-1.431 0-1.999-1.433-.567-2 0-.568 1.432 0 2"/>
  </g>
</svg>