<svg
  fill="none"
  stroke="currentColor"
  stroke-linecap="round"
  stroke-linejoin="round"
  stroke-width="1.5"
  viewBox="0 0 24 24"
  width="24"
  height="24">
  <path d="M-60-52c7.4 0 10 0 10-2s-6-4.5-6-6 6-4 6-6-2.6-2-10-2-10 0-10 8 2.6 8 10 8" transform="matrix(0 .99999 -1.00002 0 -48.001 71.996)"/>
  <path d="M12 7.2c-.45-.6-1.013-1.2-1.987-1.2-1.126 0-2.026 1.013-2.026 2.513C7.987 10.388 11.063 12 12 12s4.012-1.612 4.012-3.487c0-1.5-.9-2.513-2.025-2.513C12.9 6 12.45 6.6 12 7.2"/>
</svg>
