<svg
  xmlns="http://www.w3.org/2000/svg"
  fill="none"
  stroke="currentColor"
  stroke-linecap="round"
  stroke-linejoin="round"
  stroke-width="1.5"
  viewBox="0 0 24 24"
  width="24"
  height="24">
  <g>
    <path d="M-69.93-62c-.04.7-.07 1.65-.07 2 0 7.99 2.6 8 10 8s10 0 10-2-6-4.51-6-6 6-4 6-6-2.59-2-10-2c-1.12 0-1.99.01-3 .03" transform="matrix(0 .99999 -1.00002 0 -48.001 71.996)"/>
    <path d="M17.365 5.63c.486.486 1.784.486 2.27 0 .487-.487.487-1.784 0-2.27-.486-.487-1.784-.487-2.27 0-.487.486-.487 1.783 0 2.27"/>
  </g>
</svg>
