<svg
  xmlns="http://www.w3.org/2000/svg"
  fill="none"
  stroke="currentColor"
  stroke-linecap="round"
  stroke-linejoin="round"
  stroke-width="1.5"
  viewBox="0 0 24 24"
  width="24"
  height="24">
  <g>
    <path d="M-68.19-56c.71 3 2.19 4 9.19 4 7.16 0 8.71-.82 8.96-6M-61-67.96c-5.29.19-6.54 1.24-7.19 3.98" transform="rotate(90 -60.001 12)scale(.99999 1.00002)"/>
    <path d="M14.51 2h-5Q8 2 8 3.5T9.51 5h5Q16 5 16 3.5T14.51 2M8 10q4-.22 8 0m-8 4h5m-.498 4.998Q14.252 22 15 22q1.3 0 5-6.998"/>
  </g>
</svg>