<svg
  fill="none"
  stroke="currentColor"
  stroke-linecap="round"
  stroke-linejoin="round"
  stroke-width="1.5"
  viewBox="0 0 24 24"
  width="24"
  height="24">
  <path stroke-width="1.499" d="M17.492 8.63 14.12 12l3.37 3.372q1.226 1.225 2.446.006c2.446-2.446 2.464-4.29-.006-6.76q-1.214-1.214-2.44.012m-8.86 8.862 3.37-3.37 3.37 3.37q1.226 1.226.007 2.445c-2.446 2.445-4.29 2.464-6.76-.006q-1.213-1.213.013-2.439m6.74-10.984L12 9.88 8.628 6.51q-1.225-1.226-.006-2.446c2.446-2.445 4.296-2.457 6.748-.006q1.213 1.213 0 2.451M6.508 15.37 9.878 12l-3.37-3.37q-1.226-1.226-2.445-.007c-2.445 2.445-2.457 4.297-.006 6.747q1.213 1.214 2.45 0"/>
</svg>
