<svg
  xmlns="http://www.w3.org/2000/svg"
  fill="none"
  stroke="currentColor"
  stroke-linecap="round"
  stroke-linejoin="round"
  stroke-width="1.5"
  viewBox="0 0 24 24"
  width="24"
  height="24">
  <path d="M17.491 8.998q-1.47 1.349-3.003 3.003 1.533 1.655 3.003 3.003c.797.797 1.778.675 2.452 0 1.41-1.164 2.022-2.022 2.022-3.003s-.674-1.9-1.96-2.941c-.798-.674-1.656-.797-2.514-.062m-8.494 8.495Q10.407 15.96 12 14.49q1.593 1.47 3.003 3.003c.735.858.674 1.777-.062 2.512-1.103 1.226-1.96 1.961-2.941 1.961s-1.777-.674-2.941-1.96c-.736-.736-.797-1.655-.062-2.513m6.005-10.984q-1.41 1.532-3.003 3.003-1.594-1.471-3.003-3.003c-.736-.858-.613-1.716 0-2.452 1.103-1.348 2.022-2.022 3.003-2.022s1.9.674 3.003 2.022c.613.736.735 1.594 0 2.452m-8.494 8.494Q8.04 13.593 9.51 12q-1.47-1.593-3.002-3.002c-.858-.736-1.777-.674-2.513.06C2.77 10.163 2.035 11.02 2.035 12s.674 1.9 2.022 3.003c.674.674 1.593.735 2.45 0"/>
</svg>
