<svg
  xmlns="http://www.w3.org/2000/svg"
  fill="none"
  stroke="currentColor"
  stroke-linecap="round"
  stroke-linejoin="round"
  stroke-width="1.5"
  viewBox="0 0 24 24"
  width="24"
  height="24">
  <path d="M-58-68.1h-4c-2.8 0-4.1 1-5.6 2.5s-2.5 2.8-2.5 5.6c0 6 1.1 8.1 10.1 8.1 6.1 0 8.2-.5 9.1-3" transform="rotate(90 -59.172 12)scale(.98615 .98618)"/>
  <path d="M12.985 2.533q-.494 3.945.986 5.424 1.578 1.578 5.522 1.085m-8.48 12.918v-3.944c3.944-1.282 3.944 2.958.493 1.972m5.03 1.972q2.762-1.972 3.452-4.043m-1.48 2.07q-.985-.985-1.479-2.07"/>
</svg>
