<svg
  fill="none"
  stroke="currentColor"
  stroke-linecap="round"
  stroke-linejoin="round"
  stroke-width="1.5"
  viewBox="0 0 24 24"
  width="24"
  height="24">
  <g>
    <path d="M-58-68h-4c-2.77 0-4 1-5.5 2.51C-69-63.99-70-62.78-70-60c0 6 .99 8 10 8 .7 0 1.39-.01 2-.02" transform="rotate(90 -60.001 12)scale(.99999 1.00002)"/>
    <path d="M13 2.53Q12.5 6.49 14 8t5.53 1m-7.52 13.09c.16-1 .2-3 0-4q-1.02.44-1.52 1M10.5 22q1.5.24 3 0m5.5.09c.79 0 1.5-.58 1.5-2.08s-.76-2.1-1.5-2.1-1.5.6-1.5 2.1.71 2.08 1.5 2.08m-14 0c.79 0 1.5-.58 1.5-2.08s-.76-2.1-1.5-2.1-1.5.6-1.5 2.1.71 2.08 1.5 2.08"/>
  </g>
</svg>