<svg
  xmlns="http://www.w3.org/2000/svg"
  fill="none"
  stroke="currentColor"
  stroke-linecap="round"
  stroke-linejoin="round"
  stroke-width="1.5"
  viewBox="0 0 24 24"
  width="24"
  height="24">
  <path stroke-width="2" d="M-60-52c8.67 0 10 0 10-6.67.01-6.66-1.33-6.66-10-6.66s-10 0-10 6.66C-69.99-52-68.67-52-60-52" transform="matrix(.75 0 0 .75001 54.496 57)"/>
  <path d="M7.496 8C9 8 10.003 7 10 5.5 10 4 9 3 7.5 3 5.998 3 5 3.99 5 5.487 5 6.983 5.99 8 7.497 8"/>
  <path d="M12 7.897c1.007 0 2.001-.659 2.001-2.018S13 3.999 12 3.999c-1.002 0-1.999.484-1.999 1.88 0 1.393.995 2.018 1.999 2.018M17 15c3 3 5 2.52 5-2s-2-5-5-2M6 20.54Q8.57 18 9.5 18t3.5 2.54"/>
</svg>
