<svg
  xmlns="http://www.w3.org/2000/svg"
  fill="none"
  stroke="currentColor"
  stroke-linecap="round"
  stroke-linejoin="round"
  stroke-width="1.5"
  viewBox="0 0 24 24"
  width="24"
  height="24">
  <path d="M-50.24-63c-.6-2.4-2.48-3-7.74-3-2.1 0-1.02-2-4.02-2-7 0-8 .99-8 8 0 6.45.82 7.82 8 8" transform="matrix(.99999 0 0 1.00002 71.996 72.006)"/>
  <path d="M2.52 10Q9.25 9.64 16 9.79m5.001 2.208c1.478 1.461.324 2.321-3.998 6.643-1.331 1.327-3.838 1.526-4.002 1.358-.164-.165.022-2.672 1.348-3.998 4.323-4.323 5.174-5.46 6.652-4.003"/>
</svg>
