<svg
  xmlns="http://www.w3.org/2000/svg"
  fill="none"
  stroke="currentColor"
  stroke-linecap="round"
  stroke-linejoin="round"
  stroke-width="1.5"
  viewBox="0 0 24 24"
  width="24"
  height="24">
  <path d="M3.6 10.6c-.7-.8-1.3-1.9-.3-3.6s2.2-1.8 3.3-1.6Q8.4 5.8 9 4c.3-1 1-2 3-2s2.7 1 3 2q.5 1.7 2.4 1.4c1.1-.2 2.3-.1 3.3 1.6s.4 2.8-.3 3.6q-1.4 1.4 0 2.8c.7.8 1.3 1.9.3 3.6s-2.2 1.8-3.3 1.6q-1.9-.2-2.4 1.4c-.3 1-1 2-3 2s-2.7-1-3-2q-.5-2-2.4-1.4c-1.1.2-2.3.1-3.3-1.6s-.4-2.8.3-3.6q1.4-1.4 0-2.8"/>
  <path d="M12 15.511c2.771 0 3.51-.739 3.51-3.51S14.771 8.49 12 8.49 8.534 9.229 8.534 12s.693 3.511 3.464 3.511"/>
</svg>
