<svg
  xmlns="http://www.w3.org/2000/svg"
  fill="none"
  stroke="currentColor"
  stroke-linecap="round"
  stroke-linejoin="round"
  stroke-width="1.5"
  viewBox="0 0 24 24"
  width="24"
  height="24">
  <path d="M-60-52c9 0 10-1 10-8s-1-8-10-8-10 1-10 8 1 8 10 8" transform="matrix(.99999 0 0 1.00002 71.996 71.996)"/>
  <path d="M14.05 19.495c-.1-2.7-.6-5-2.1-6.5-2.4-2.4-5.5-3-9.4-2m18.95 4c-2-1-5.5-1-8 0"/>
  <path d="M16.228 9.768c.309.31 1.235.31 1.544 0s.31-1.235 0-1.544-1.235-.31-1.544 0-.31 1.235 0 1.544"/>
</svg>
