<svg
  fill="none"
  stroke="currentColor"
  stroke-linecap="round"
  stroke-linejoin="round"
  stroke-width="1.5"
  viewBox="0 0 24 24"
  width="24"
  height="24">
  <g>
    <path d="M-60-52c9.01 0 10-1.01 10-8 0-7-.99-8-10-8-9 0-10 .99-10 8 0 7 1 8 10 8" transform="matrix(.99999 0 0 1.00002 71.996 71.996)"/>
    <path d="M14 19.995c-.04-2.67-.54-5.54-2-7-2.41-2.4-6.32-3.45-10-2m20 4c-2-1-6-1-8.47 0"/>
    <path d="M16.243 9.753c.325.324 1.19.324 1.514 0s.324-1.19 0-1.513c-.325-.325-1.19-.325-1.514 0-.324.324-.324 1.189 0 1.513"/>
  </g>
</svg>
