<svg
  xmlns="http://www.w3.org/2000/svg"
  fill="none"
  stroke="currentColor"
  stroke-linecap="round"
  stroke-linejoin="round"
  stroke-width="1.5"
  viewBox="0 0 24 24"
  width="24"
  height="24">
  <g>
    <path stroke-width="1.496" d="M3 17.625C3 21 4.002 21 12 21c8 0 9 0 9-3.375 0-2.621-1-2.621-3.498-2.621-4.5 0-2.003 1.991-5.502 1.991s-1-1.991-5.5-1.991c-2.498 0-3.5 0-3.5 2.621"/>
    <path stroke-width="1.496" d="M3.225 16.005c1.53-6.053 2.104-9.281 3.038-11.003m11.464 0c.945 1.733 1.519 4.95 3.049 11.003"/>
    <path d="M9 7q2 3 3 3t3-3m-3 2V3"/>
  </g>
</svg>