<svg
  xmlns="http://www.w3.org/2000/svg"
  fill="none"
  stroke="currentColor"
  stroke-linecap="round"
  stroke-linejoin="round"
  stroke-width="1.5"
  viewBox="0 0 24 24"
  width="24"
  height="24">
  <path stroke-width="1.498" d="M6.496 20.998c2.504 0 3.52-1.502 3.503-3.5C9.986 15.502 9 14 6.499 14S3 15.504 3 17.502s.996 3.496 3.496 3.496m0-11c2.504 0 3.52-1.502 3.503-3.5C9.986 4.502 9 3 6.499 3S3 4.504 3 6.502s.996 3.496 3.496 3.496m11 0c2.504 0 3.52-1.502 3.503-3.5C20.986 4.502 20 3 17.499 3S14 4.504 14 6.502s.996 3.496 3.496 3.496"/>
  <path d="m15 20 5-5m-5 0 5 5"/>
</svg>
