<svg
  xmlns="http://www.w3.org/2000/svg"
  fill="none"
  stroke="currentColor"
  stroke-linecap="round"
  stroke-linejoin="round"
  stroke-width="1.5"
  viewBox="0 0 24 24"
  width="24"
  height="24">
  <path stroke-width="1.498" d="M6.496 20.998c3.003 0 3.506-.999 3.503-3.5 0-2.5-.5-3.499-3.5-3.499S3 14.998 3 17.502c0 2.5.496 3.496 3.496 3.496m11 0c2.99 0 3.503 0 3.503-3.5.003-1.939-2.744-3.499-3.5-3.499S14.003 15.562 14 17.502c-.003 3.496.506 3.496 3.496 3.496m0-11c2.504 0 3.52-1.502 3.503-3.5C20.986 4.502 20 3 17.499 3S14 4.504 14 6.502s.996 3.496 3.496 3.496"/>
  <path stroke-width="32.48" d="M-75.26 24.67c0-59.66 50.38-118.13 75.58-118.13 25.21 0 75.66 58.47 75.66 118.13 0 16.88-8.28 33.73-75.66 33.75-67.37.02-75.58-16.87-75.58-33.75" transform="matrix(.04628 0 0 .0461 6.483 7.307)"/>
</svg>
