<svg
  xmlns="http://www.w3.org/2000/svg"
  fill="none"
  stroke="currentColor"
  stroke-linecap="round"
  stroke-linejoin="round"
  stroke-width="1.5"
  viewBox="0 0 24 24"
  width="24"
  height="24">
  <path stroke-width="1.498" d="M6.496 20.998c3.003 0 3.506-.999 3.503-3.5 0-2.5-.5-3.499-3.5-3.499S3 14.998 3 17.502c0 2.5.496 3.496 3.496 3.496m0-11c3.003 0 3.506-.999 3.503-3.5 0-2.5-.5-3.499-3.5-3.499S3 3.998 3 6.502c0 2.5.496 3.496 3.496 3.496m11 0c3.003 0 3.506-.999 3.503-3.5 0-2.5-.5-3.499-3.5-3.499S14 3.998 14 6.502c0 2.5.496 3.496 3.496 3.496m0 11c3.003 0 3.506-.999 3.503-3.5 0-2.5-.5-3.499-3.5-3.499S14 14.998 14 17.502c0 2.5.496 3.496 3.496 3.496"/>
</svg>
