<svg
  xmlns="http://www.w3.org/2000/svg"
  fill="none"
  stroke="currentColor"
  stroke-linecap="round"
  stroke-linejoin="round"
  stroke-width="1.5"
  viewBox="0 0 24 24"
  width="24"
  height="24">
  <path stroke-width="1.498" d="M6.496 20.998c2.504 0 3.52-1.502 3.503-3.5C9.986 15.502 9 14 6.499 14S3 15.504 3 17.502s.996 3.496 3.496 3.496m0-11c2.504 0 3.52-1.502 3.503-3.5C9.986 4.502 9 3 6.499 3S3 4.504 3 6.502s.996 3.496 3.496 3.496m11.004 0c2.501 0 3.516-1.502 3.5-3.5S19.998 3 17.497 3s-3.499 1.505-3.499 3.503.999 3.496 3.503 3.496"/>
  <path d="M20 17.5a2.5 2.5 0 0 1-5 0 2.5 2.5 0 0 1 5 0M17.5 21h.06M20 20v-.07m1-2.43v.04M20 15v.07M17.5 14h.1M15 15h.08M14 17.5v-.1m1 2.6h.09"/>
</svg>
