<svg
  xmlns="http://www.w3.org/2000/svg"
  fill="none"
  stroke="currentColor"
  stroke-linecap="round"
  stroke-linejoin="round"
  stroke-width="1.5"
  viewBox="0 0 24 24"
  width="24"
  height="24">
  <path d="M19.992 4.009c2.262 2.263 2.475 9.546-4.95 15.98-2.192 1.91-6.081-.99-8.061-2.97s-4.808-5.798-2.97-8.06c5.374-6.506 13.718-7.213 15.98-4.95m-13.01 13.01c-4.03-4.03-5.02 2.617-3.818 3.819s7.848.212 3.818-3.818"/>
  <path d="M20.472 13.028q.566 4.95-1.485 7.99-1.131 1.698-4.03-.919m-3.973-16.26q-4.95-.849-7.99 1.202-1.627 1.06.99 3.96"/>
  <path d="M10.021 11c0 1.375 1.606 2.98 2.981 2.98s2.982-1.605 2.982-2.98-1.606-2.982-2.982-2.982-2.98 1.605-2.98 2.981"/>
</svg>
