<svg
  xmlns="http://www.w3.org/2000/svg"
  fill="none"
  stroke="currentColor"
  stroke-linecap="round"
  stroke-linejoin="round"
  stroke-width="1.5"
  viewBox="0 0 24 24"
  width="24"
  height="24">
  <path d="M4.074 15.999c0 3.962 5.942 5.942 7.923 5.942 1.585 0 3.368-1.386 3.962-1.98 2.971-2.377 3.962-2.972 3.962-7.924s-4.358-3.17-5.547-5.942c-.99-2.972-1.386-4.16-2.971-4.16-.99 0-1.98.99-3.367 2.179-3.17 1.98-.99 3.962-.99 6.933 0 1.98-2.972 2.971-2.972 4.952"/>
  <path d="M8 20.4Q7.8 15 13 14c2.2-.4 2.4 2 6.4 2M13 13.8c-4-3.5 1-5.3-1-11.3"/>
</svg>
