<svg
  fill="none"
  stroke="currentColor"
  stroke-linecap="round"
  stroke-linejoin="round"
  stroke-width="1.5"
  viewBox="0 0 24 24"
  width="24"
  height="24">
  <g>
    <path d="M9 20.996q-6 0-6-6m0-6c0-3.99 2-5.99 6-5.99m6 0c4 0 6.001 2 6.001 5.99m0 6c0 4-1.98 6-6 6m-5.248-8.743C10.2 12.7 11.1 13 12 13s1.791-.294 2.247-.747C14.7 11.8 15 10.9 15 10s-.3-1.8-.753-2.238C13.791 7.321 12.9 7 12 7s-1.794.321-2.247.762C9.3 8.2 9 9.1 9 10s.306 1.806.753 2.253"/>
    <path d="M-52-54.1c-.8-2.47-3.2-4.9-8-4.9s-7.18 2.44-8 4.9" transform="matrix(.62494 0 0 .61207 49.497 49.112)"/>
  </g>
</svg>
