<svg
  xmlns="http://www.w3.org/2000/svg"
  fill="none"
  stroke="currentColor"
  stroke-linecap="round"
  stroke-linejoin="round"
  stroke-width="1.5"
  viewBox="0 0 24 24"
  width="24"
  height="24">
  <path d="M9.75 12.25c.45.45 1.35.75 2.25.75s1.8-.3 2.25-.75S15 10.9 15 10s-.3-1.8-.75-2.25C13.8 7.33 12.9 7 12 7s-1.8.33-2.25.75C9.3 8.2 9 9.1 9 10s.3 1.8.75 2.25"/>
  <path stroke-width="2.4" d="M-52-54.1c-.8-2.5-3.2-4.9-8-4.9s-7.2 2.4-8 4.9" transform="matrix(.62494 0 0 .61207 49.497 49.112)"/>
  <path d="M9 20.996q-6 0-6-6m0-6q0-6 6-6m6 0q6.001 0 6.001 6m0 6q0 6-6 6"/>
</svg>