<svg
  fill="none"
  stroke="currentColor"
  stroke-linecap="round"
  stroke-linejoin="round"
  stroke-width="1.5"
  viewBox="0 0 24 24"
  width="24"
  height="24">
  <path d="M7 20.386c-1.71-.58-2.81-1.65-3.39-3.39m0-10c.58-1.78 1.62-2.79 3.39-3.39m10 0c1.74.6 2.79 1.67 3.39 3.39m0 10c-.58 1.78-1.62 2.79-3.39 3.39M20.93 10c.05.62.07 1.31.07 2 0 .7-.02 1.39-.07 2M10 3.07c.62-.05 1.31-.07 2-.07s1.38.02 2 .07M3.07 14c-.05-.61-.07-1.31-.07-2s.02-1.38.07-2M14 20.93c-.63.05-1.32.07-2 .07-.69 0-1.39-.02-2-.07m2 .07V3m-9 9h18"/>
</svg>
