<svg
  fill="none"
  stroke="currentColor"
  stroke-linecap="round"
  stroke-linejoin="round"
  stroke-width="1.5"
  viewBox="0 0 24 24"
  width="24"
  height="24">
  <g>
    <path d="M13.433 10.575C12.6 9.742 12.167 6 10.5 6s-2.092 3.742-2.925 4.575S3 11.825 3 13.492s3.742 2.1 4.575 2.933S8.825 21 10.492 21s2.108-3.742 2.941-4.575C14.267 15.592 18 15.167 18 13.5s-3.733-2.092-4.567-2.925"/>
    <path d="M18 9q.74-1.74 1-2t2-1q-1.74-.72-2-1t-1-2q-.72 1.73-1 2t-2 1q1.72.73 2 1t1 2"/>
  </g>
</svg>
