<svg
  xmlns="http://www.w3.org/2000/svg"
  fill="none"
  stroke="currentColor"
  stroke-linecap="round"
  stroke-linejoin="round"
  stroke-width="1.5"
  viewBox="0 0 24 24"
  width="24"
  height="24">
  <path d="M3.003 4.753c0-1.79.99-1.75 8.99-1.75s9-.05 9.01 1.74c0 1.79-1 1.76-9.01 1.76-8 0-8.99.04-8.99-1.75m0 14.5c0-1.79.99-1.75 8.99-1.75s9.01-.04 9.01 1.75-1 1.75-9.01 1.75c-8 0-8.99.03-8.99-1.75m0-7.25c0-1.79.99-1.75 8.99-1.75s9.01-.04 9.01 1.75-1 1.75-9.01 1.75c-8 0-8.99.04-8.99-1.75"/>
</svg>
