<svg
  fill="none"
  stroke="currentColor"
  stroke-linecap="round"
  stroke-linejoin="round"
  stroke-width="1.5"
  viewBox="0 0 24 24"
  width="24"
  height="24">
  <path d="M-53.69-58.47q-1.22.87-.74 2.29c.84 2.35 1.63 4.3.42 5.18s-2.83-.47-4.79-2q-1.21-.9-2.41 0c-1.97 1.53-3.59 2.88-4.8 2s-.43-2.83.42-5.17q.48-1.43-.74-2.29c-2.06-1.41-3.85-2.53-3.39-3.95.46-1.43 2.57-1.28 5.05-1.19q1.51.01 1.96-1.42c.7-2.39 1.21-4.44 2.71-4.44 1.49 0 2.01 2.04 2.69 4.43q.45 1.44 1.95 1.42c2.5-.07 4.6-.22 5.06 1.21.46 1.42-1.32 2.54-3.39 3.93" transform="matrix(1.02215 0 0 1.06735 73.338 76.136)"/>
</svg>
