<svg
  fill="none"
  stroke="currentColor"
  stroke-linecap="round"
  stroke-linejoin="round"
  stroke-width="1.5"
  viewBox="0 0 24 24"
  width="24"
  height="24">
  <g>
    <path d="M-53.7-54.05c.39 1.33.49 2.47-.31 3.05-1.21.88-2.83-.47-4.79-2q-1.21-.9-2.41 0c-1.97 1.53-3.59 2.88-4.8 2s-.43-2.83.42-5.17q.48-1.43-.74-2.29c-2.06-1.41-3.85-2.53-3.39-3.95.46-1.43 2.48-1.23 5.9-1.33m1.48-2.56c.42-1.25.84-3.16 2.34-3.16 1.49 0 2.01 2.04 2.69 4.43q.45 1.44 1.95 1.42c2.5-.07 4.6-.22 5.06 1.21.46 1.42-1.58 2.74-3.65 4.13" transform="matrix(1.02215 0 0 1.06735 73.342 76.136)"/>
    <path d="m21.004 21-17-17"/>
  </g>
</svg>
