<svg
  xmlns="http://www.w3.org/2000/svg"
  fill="none"
  stroke="currentColor"
  stroke-linecap="round"
  stroke-linejoin="round"
  stroke-width="1.5"
  viewBox="0 0 24 24"
  width="24"
  height="24">
  <path d="M14.66 2.99C11.19 2.34 6.99 3.01 5 5 2 8 2 16 5 19s11 3 14 0c1.99-1.99 2.66-6.17 2.01-9.64M13 6.67c-1.8-.24-3.83.16-5 1.33-1.86 1.86-1.86 6.14 0 8s6.14 1.86 8 0c1.14-1.14 1.58-3.17 1.33-5M11 13c.57.57 1.43.57 2 0s.57-1.43 0-2-1.43-.57-2 0-.57 1.43 0 2m.997-.996 6.753-6.767M18 3.002V6h3l-2.25-.763z"/>
</svg>
