<svg
  fill="none"
  stroke="currentColor"
  stroke-linecap="round"
  stroke-linejoin="round"
  stroke-width="1.5"
  viewBox="0 0 24 24"
  width="24"
  height="24">
  <path d="M4.075 12.037c0 5.15 0 5.15 3.962 7.924s3.961 2.773 7.923 0c3.962-2.576 3.962-2.774 3.962-7.924s0-5.15-3.962-7.923c-3.962-2.971-3.962-2.971-7.923 0-3.962 2.773-3.962 2.773-3.962 7.923"/>
  <path d="M11.998 8.024c2.369 0 3.012.947 3.012 3.992 0 3.012-.61 3.993-3.012 3.993s-3.011-.981-3.011-3.993c0-3.045.643-3.992 3.011-3.992"/>
</svg>
