<svg
  fill="none"
  stroke="currentColor"
  stroke-linecap="round"
  stroke-linejoin="round"
  stroke-width="1.5"
  viewBox="0 0 24 24"
  width="24"
  height="24">
  <path d="M19 17q0-7-2.54-12M14 3.68q-3 .08-5 1.65M6.47 8Q4 13 5 19m2 2q5 .7 10-1.53M7 20.5c0 .83-.67 1.5-1.5 1.5S4 21.33 4 20.5 4.67 19 5.5 19s1.5.67 1.5 1.5m10-17c0 .83-.67 1.5-1.5 1.5S14 4.33 14 3.5 14.67 2 15.5 2s1.5.67 1.5 1.5m3 15c0 .83-.67 1.5-1.5 1.5s-1.5-.67-1.5-1.5.67-1.5 1.5-1.5 1.5.67 1.5 1.5M9 6.5C9 7.33 8.33 8 7.5 8S6 7.33 6 6.5 6.67 5 7.5 5 9 5.67 9 6.5"/>
</svg>