<svg
  xmlns="http://www.w3.org/2000/svg"
  fill="none"
  stroke="currentColor"
  stroke-linecap="round"
  stroke-linejoin="round"
  stroke-width="1.5"
  viewBox="0 0 24 24"
  width="24"
  height="24">
  <g>
    <path d="M18.999 18.995c-.82-2.49-4.01-2.99-7.01-2.99-3.01 0-6.19.59-6.99 2.99m3.256-4.24C9 15.5 10.5 16 12 16s2.985-.49 3.745-1.245C16.5 14 17 12.5 17 11s-.5-3-1.255-3.73C14.985 6.535 13.5 6 12 6s-2.99.535-3.745 1.27C7.5 8 7 9.5 7 11s.51 3.01 1.255 3.755"/>
    <path d="M5.003 19c3 3 11 3 14 0s3-11 0-14-11-3-14 0-3 11 0 14"/>
  </g>
</svg>
