<svg
  xmlns="http://www.w3.org/2000/svg"
  fill="none"
  stroke="currentColor"
  stroke-linecap="round"
  stroke-linejoin="round"
  stroke-width="1.5"
  viewBox="0 0 24 24"
  width="24"
  height="24">
  <g>
    <path d="M8.235 14.755C8.98 15.5 10.48 16 11.98 16s2.985-.49 3.745-1.245C16.48 14 16.98 12.5 16.98 11s-.5-3-1.255-3.73C14.965 6.535 13.48 6 11.98 6s-2.99.535-3.745 1.27C7.48 8 6.98 9.5 6.98 11s.51 3.01 1.255 3.755"/>
    <path d="M19.003 18.99c-1-2-4.02-2.99-7.02-2.99-3.01 0-5.98.99-6.98 2.99"/>
    <path d="M12 3.005c7 0 9.001 1.99 9.001 8.99s-2 9.001-9 9.001-9-2-9-9 1.99-8.99 9-8.99"/>
  </g>
</svg>
