<svg
  xmlns="http://www.w3.org/2000/svg"
  fill="none"
  stroke="currentColor"
  stroke-linecap="round"
  stroke-linejoin="round"
  stroke-width="1.5"
  viewBox="0 0 24 24"
  width="24"
  height="24">
  <g>
    <path d="M-60-52c9 0 10-1 10-8s-1-8-10-8-10 1-10 8 1 8 10 8" transform="matrix(.99999 0 0 1.00002 72 72.001)"/>
    <path d="M7.126 12.38c.373.374 1.124.621 1.875.621s1.494-.242 1.875-.62c.378-.378.625-1.13.625-1.88s-.247-1.502-.625-1.868C10.496 8.265 9.752 8 9 8s-1.497.265-1.875.633C6.748 9 6.5 9.75 6.5 10.501s.253 1.507.626 1.88"/>
    <path d="M11.999 15.999c0-1-1-3-3.013-3s-2.987 2-2.987 3"/>
    <path d="M15 10.005h2.98m-2.97 3H17"/>
  </g>
</svg>
