<?xml version="1.0" encoding="UTF-8"?>

<!-- Altered-Icons: (https://github.com/dot-alter/Altered-Icons-Pack) -->

<svg xmlns="http://www.w3.org/2000/svg" xmlns:svg="http://www.w3.org/2000/svg" xmlns:xlink="http://www.w3.org/1999/xlink" width="24" height="24" viewBox="0 0 24 24" preserveAspectRatio="xMidYMid meet">
	<g transform="matrix(1, 0, 0, 1, 11.983901977539062, 11.98388671875)">
		<path transform="matrix(1, 0, 0, 1, 60.01856994628906, 36.01544189453125)" d="M-67.04,-42.99 C-68.3,-42.57 -69.12,-41.42 -69.49,-39.89 L-69.49,-39.89 C-70.22,-37.31 -70.22,-34.7 -69.49,-32.11 L-69.49,-32.11 L-69.49,-32.11 L-69.49,-32.11 L-69.49,-32.11 L-69.49,-32.1 C-69.12,-30.57 -68.29,-29.43 -67.04,-29.02 C-62.91,-27.62 -57.16,-27.62 -53.03,-29.02 Q-51.25,-29.55 -50.58,-32.11 L-50.58,-32.12 C-49.85,-34.7 -49.85,-37.31 -50.58,-39.89 C-50.95,-41.42 -51.77,-42.57 -53.03,-42.99 C-57.15,-44.38 -62.92,-44.38 -67.04,-42.99 ZM-53.5,-41.57 Q-52.32,-41.16 -51.92,-39 Q-60.03,-40.4 -68.15,-39.01 Q-67.94,-41 -66.57,-41.57 C-62.85,-42.82 -57.22,-42.82 -53.5,-41.57 ZM-51.63,-37.47 C-51.44,-35.82 -51.56,-34.17 -52.03,-32.5 C-52.03,-32.49 -52.03,-32.48 -52.04,-32.47 C-52.33,-31.23 -52.8,-30.67 -53.5,-30.44 C-53.5,-30.44 -53.5,-30.44 -53.51,-30.44 C-56,-29.59 -59.35,-29.37 -62.42,-29.66 C-63.08,-31.95 -63.29,-34.75 -63.08,-37.98 C-59.27,-38.23 -55.02,-38.08 -51.63,-37.47 ZM-64.58,-37.84 C-64.75,-34.85 -64.59,-32.16 -64.01,-29.85 C-64.91,-30 -65.8,-30.18 -66.56,-30.44 C-66.57,-30.44 -66.57,-30.44 -66.57,-30.44 C-67.27,-30.67 -67.74,-31.23 -68.04,-32.47 C-68.04,-32.48 -68.04,-32.49 -68.04,-32.5 C-68.52,-34.17 -68.63,-35.82 -68.44,-37.48 C-67.15,-37.71 -65.86,-37.71 -64.58,-37.84 Z" fill-rule="evenodd" style="fill:#FFFFFF;" />
	</g>
</svg>