<?xml version="1.0" encoding="UTF-8"?>

<!-- Altered-Icons: (https://github.com/dot-alter/Altered-Icons-Pack) -->

<svg xmlns="http://www.w3.org/2000/svg" xmlns:svg="http://www.w3.org/2000/svg" xmlns:xlink="http://www.w3.org/1999/xlink" width="24" height="24" viewBox="0 0 24 24" preserveAspectRatio="xMidYMid meet">
	<g transform="matrix(1, 0, 0, 1, 12, 12)">
		<path transform="matrix(1, 0, 0, 1, 60, 60.02927017211914)" d="M-62.67,-68.83 C-63.6,-68.67 -64.54,-68.46 -65.5,-68.19 C-65.5,-68.19 -65.5,-68.19 -65.5,-68.19 C-66.79,-67.86 -67.67,-66.98 -67.92,-66.24 C-68.31,-65.2 -68.6,-64.03 -68.8,-62.7 C-68.87,-62.29 -68.59,-61.9 -68.18,-61.84 C-67.77,-61.78 -67.39,-62.06 -67.32,-62.47 C-67.14,-63.65 -66.88,-64.65 -66.56,-65.53 L-62.49,-61.45 C-62.19,-61.16 -61.72,-61.16 -61.43,-61.45 C-61.13,-61.75 -61.13,-62.22 -61.43,-62.51 L-65.43,-66.52 C-65.13,-66.64 -63.54,-67.16 -62.41,-67.36 C-62,-67.43 -61.73,-67.81 -61.8,-68.22 C-61.87,-68.63 -62.26,-68.9 -62.67,-68.83 ZM-57.33,-68.83 C-57.74,-68.9 -58.13,-68.63 -58.2,-68.22 C-58.27,-67.81 -58,-67.43 -57.59,-67.36 C-56.42,-67.15 -54.86,-66.63 -54.54,-66.5 L-58.54,-62.49 C-58.83,-62.2 -58.83,-61.73 -58.54,-61.43 C-58.25,-61.14 -57.77,-61.14 -57.48,-61.43 L-53.43,-65.48 C-53.12,-64.61 -52.86,-63.63 -52.68,-62.47 C-52.61,-62.06 -52.23,-61.78 -51.82,-61.84 C-51.41,-61.9 -51.13,-62.29 -51.2,-62.7 C-51.4,-64.03 -51.69,-65.2 -52.08,-66.24 Q-52.57,-67.69 -54.5,-68.19 C-55.46,-68.46 -56.4,-68.67 -57.33,-68.83 ZM-62.48,-58.6 L-66.56,-54.52 C-66.87,-55.4 -67.14,-56.41 -67.32,-57.59 C-67.39,-58 -67.77,-58.28 -68.18,-58.22 C-68.59,-58.16 -68.87,-57.77 -68.8,-57.36 C-68.6,-56.03 -68.3,-54.85 -67.92,-53.82 Q-67.43,-52.37 -65.5,-51.87 C-65.5,-51.87 -65.5,-51.87 -65.5,-51.87 C-64.54,-51.6 -63.6,-51.38 -62.67,-51.22 C-62.26,-51.16 -61.87,-51.43 -61.8,-51.84 C-61.73,-52.23 -62.02,-52.64 -62.41,-52.7 C-63.52,-52.89 -65.13,-53.42 -65.42,-53.54 L-61.42,-57.54 C-61.13,-57.83 -61.13,-58.31 -61.42,-58.6 C-61.71,-58.89 -62.19,-58.89 -62.48,-58.6 ZM-58.54,-58.58 C-58.84,-58.29 -58.84,-57.82 -58.55,-57.52 L-54.58,-53.53 C-54.87,-53.41 -56.47,-52.89 -57.59,-52.7 C-57.98,-52.64 -58.27,-52.23 -58.2,-51.84 C-58.13,-51.43 -57.74,-51.16 -57.33,-51.22 C-55.76,-51.49 -54.5,-51.87 -54.5,-51.87 C-53.21,-52.2 -52.41,-52.85 -52.08,-53.82 C-51.7,-54.85 -51.4,-56.03 -51.2,-57.36 C-51.13,-57.77 -51.41,-58.16 -51.82,-58.22 C-52.23,-58.28 -52.61,-58 -52.68,-57.59 C-52.86,-56.41 -53.13,-55.4 -53.45,-54.52 L-57.48,-58.58 C-57.78,-58.87 -58.25,-58.87 -58.54,-58.58 Z" style="fill:#F1F1F1;" />
	</g>
</svg>