<?xml version="1.0" encoding="UTF-8"?>
<!-- Created with Grafika (https://www.grafika.cc/) -->
<svg xmlns="http://www.w3.org/2000/svg" xmlns:svg="http://www.w3.org/2000/svg" xmlns:xlink="http://www.w3.org/1999/xlink" width="24" height="24" viewBox="0 0 24 24" preserveAspectRatio="xMidYMid meet">
	<g transform="matrix(1, 0, 0, 1, 12, 12)">
		<path transform="matrix(1, 0, 0, 1, 60, 60.02927017211914)" d="M-62.67,-68.83 C-63.6,-68.67 -64.54,-68.46 -65.5,-68.19 C-65.5,-68.19 -65.5,-68.19 -65.5,-68.19 C-66.67,-67.89 -67.59,-67.23 -67.92,-66.24 C-68.31,-65.2 -68.6,-64.03 -68.8,-62.7 C-68.87,-62.29 -68.59,-61.9 -68.18,-61.84 C-67.77,-61.78 -67.39,-62.06 -67.32,-62.47 C-67.13,-63.73 -66.85,-64.81 -66.51,-65.73 C-66.5,-65.74 -66.5,-65.75 -66.5,-65.76 C-66.35,-66.19 -66.01,-66.51 -65.12,-66.74 C-65.12,-66.74 -65.11,-66.74 -65.11,-66.74 C-64.19,-67 -63.29,-67.2 -62.41,-67.36 C-62,-67.43 -61.73,-67.81 -61.8,-68.22 C-61.87,-68.63 -62.26,-68.9 -62.67,-68.83 ZM-67.92,-66.24 C-67.91,-66.25 -67.91,-66.25 -67.91,-66.26 L-67.92,-66.23 C-67.92,-66.23 -67.92,-66.24 -67.92,-66.24 ZM-57.33,-68.83 C-57.74,-68.9 -58.13,-68.63 -58.2,-68.22 C-58.27,-67.81 -58,-67.43 -57.59,-67.36 C-56.71,-67.2 -55.81,-67 -54.89,-66.74 C-54.89,-66.74 -54.88,-66.74 -54.88,-66.74 C-53.99,-66.51 -53.65,-66.19 -53.5,-65.76 C-53.5,-65.75 -53.5,-65.74 -53.49,-65.73 C-53.15,-64.81 -52.87,-63.73 -52.68,-62.47 C-52.61,-62.06 -52.23,-61.78 -51.82,-61.84 C-51.41,-61.9 -51.13,-62.29 -51.2,-62.7 C-51.4,-64.03 -51.69,-65.2 -52.08,-66.24 C-52.41,-67.23 -53.33,-67.89 -54.5,-68.19 C-55.46,-68.46 -56.4,-68.67 -57.33,-68.83 ZM-52.08,-66.24 C-52.08,-66.24 -52.08,-66.23 -52.08,-66.23 L-52.09,-66.26 C-52.09,-66.25 -52.09,-66.25 -52.08,-66.24 ZM-68.18,-58.22 C-68.59,-58.16 -68.87,-57.77 -68.8,-57.36 C-68.6,-56.03 -68.3,-54.85 -67.92,-53.82 C-67.59,-52.83 -66.67,-52.17 -65.5,-51.87 C-65.5,-51.87 -65.5,-51.87 -65.5,-51.87 C-64.54,-51.6 -63.6,-51.38 -62.67,-51.22 C-62.26,-51.16 -61.87,-51.43 -61.8,-51.84 C-61.73,-52.23 -62.02,-52.64 -62.41,-52.7 C-63.29,-52.85 -64.19,-53.06 -65.11,-53.31 C-65.11,-53.32 -65.12,-53.32 -65.12,-53.32 C-66.01,-53.55 -66.35,-53.87 -66.5,-54.3 C-66.5,-54.31 -66.5,-54.32 -66.51,-54.33 C-66.85,-55.24 -67.13,-56.33 -67.32,-57.59 C-67.39,-58 -67.77,-58.28 -68.18,-58.22 ZM-67.92,-53.82 C-67.92,-53.82 -67.92,-53.82 -67.92,-53.83 L-67.91,-53.79 C-67.91,-53.8 -67.91,-53.81 -67.92,-53.82 ZM-51.82,-58.22 C-52.23,-58.28 -52.61,-58 -52.68,-57.59 C-52.87,-56.33 -53.15,-55.24 -53.49,-54.33 C-53.5,-54.32 -53.5,-54.31 -53.5,-54.3 C-53.65,-53.87 -53.99,-53.55 -54.88,-53.32 C-54.88,-53.32 -54.89,-53.32 -54.89,-53.31 C-55.81,-53.06 -56.71,-52.85 -57.59,-52.7 C-57.98,-52.64 -58.27,-52.23 -58.2,-51.84 C-58.13,-51.43 -57.74,-51.16 -57.33,-51.22 C-56.4,-51.38 -55.46,-51.6 -54.5,-51.87 L-54.5,-51.87 C-53.33,-52.17 -52.41,-52.83 -52.08,-53.82 C-51.7,-54.85 -51.4,-56.03 -51.2,-57.36 C-51.13,-57.77 -51.41,-58.16 -51.82,-58.22 ZM-52.08,-53.82 C-52.09,-53.81 -52.09,-53.8 -52.09,-53.79 L-52.08,-53.83 C-52.08,-53.82 -52.08,-53.82 -52.08,-53.82 ZM-63.61,-63.87 C-64.37,-63.62 -64.88,-62.9 -65.08,-62.06 C-65.45,-60.72 -65.45,-59.35 -65.08,-58 C-64.88,-57.16 -64.37,-56.44 -63.61,-56.19 C-61.45,-55.46 -58.55,-55.46 -56.39,-56.19 C-55.63,-56.44 -55.12,-57.16 -54.92,-58 C-54.55,-59.35 -54.55,-60.72 -54.92,-62.06 C-55.12,-62.9 -55.63,-63.61 -56.39,-63.87 C-58.55,-64.6 -61.45,-64.6 -63.61,-63.87 ZM-54.92,-62.06 C-54.92,-62.06 -54.92,-62.05 -54.92,-62.05 L-54.93,-62.08 C-54.93,-62.08 -54.93,-62.07 -54.92,-62.06 ZM-54.92,-58 C-54.93,-57.99 -54.93,-57.99 -54.93,-57.98 L-54.92,-58.01 C-54.92,-58.01 -54.92,-58.01 -54.92,-58 ZM-65.08,-58 C-65.08,-58.01 -65.08,-58.01 -65.08,-58.01 L-65.07,-57.98 C-65.08,-57.99 -65.07,-57.99 -65.08,-58 ZM-65.08,-62.06 C-65.07,-62.07 -65.08,-62.08 -65.07,-62.08 L-65.08,-62.05 C-65.08,-62.05 -65.08,-62.06 -65.08,-62.06 ZM-56.87,-62.45 C-56.86,-62.45 -56.86,-62.45 -56.86,-62.45 C-56.65,-62.38 -56.51,-62.25 -56.38,-61.71 C-56.38,-61.69 -56.37,-61.68 -56.37,-61.67 C-56.06,-60.57 -56.06,-59.49 -56.37,-58.39 C-56.37,-58.38 -56.38,-58.37 -56.38,-58.35 C-56.51,-57.81 -56.65,-57.68 -56.86,-57.62 C-56.86,-57.61 -56.86,-57.61 -56.87,-57.61 C-58.61,-57.02 -61.39,-57.02 -63.13,-57.61 C-63.14,-57.61 -63.14,-57.61 -63.14,-57.62 C-63.35,-57.68 -63.49,-57.81 -63.62,-58.35 C-63.62,-58.37 -63.63,-58.38 -63.63,-58.39 C-63.94,-59.49 -63.94,-60.57 -63.63,-61.67 C-63.63,-61.68 -63.62,-61.69 -63.62,-61.71 C-63.49,-62.25 -63.35,-62.38 -63.14,-62.45 C-63.14,-62.45 -63.14,-62.45 -63.14,-62.45 C-61.39,-63.04 -58.61,-63.04 -56.87,-62.45 Z" style="fill:#F1F1F1;" />
	</g>
</svg>