<?xml version="1.0" encoding="UTF-8"?>

<!-- Altered-Icons: (https://github.com/dot-alter/Altered-Icons-Pack) -->

<svg xmlns="http://www.w3.org/2000/svg" xmlns:svg="http://www.w3.org/2000/svg" xmlns:xlink="http://www.w3.org/1999/xlink" width="24" height="24" viewBox="0 0 24 24" preserveAspectRatio="xMidYMid meet">
	<g transform="matrix(1, 0, 0, 1, 11.995223999023438, 11.9952392578125)">
		<path transform="matrix(1, 0, 0, 1, 60.0047492980957, 36.00000762939453)" d="M-65.5,-44.18 L-65.5,-44.18 C-66.59,-43.89 -67.46,-43.24 -67.89,-42.29 C-67.9,-42.27 -67.91,-42.25 -67.91,-42.23 C-69.38,-38.11 -69.36,-33.88 -67.91,-29.79 C-67.91,-29.77 -67.9,-29.75 -67.89,-29.74 C-67.46,-28.79 -66.59,-28.14 -65.5,-27.85 L-65.5,-27.85 C-61.85,-26.77 -58.16,-26.77 -54.49,-27.85 C-53.4,-28.13 -52.53,-28.79 -52.1,-29.74 C-52.09,-29.75 -52.09,-29.77 -52.08,-29.79 C-50.63,-33.88 -50.63,-38.15 -52.08,-42.23 C-52.09,-42.26 -52.1,-42.28 -52.11,-42.3 C-52.54,-43.24 -53.41,-43.89 -54.5,-44.18 L-54.5,-44.18 L-54.51,-44.18 C-58.15,-45.24 -61.84,-45.24 -65.5,-44.18 ZM-60,-43.48 C-59.39,-43.48 -58.78,-43.41 -58.17,-43.35 C-57.91,-42.26 -57.7,-41.18 -57.55,-40.1 C-58.37,-40.16 -59.18,-40.25 -60,-40.25 C-60.81,-40.25 -61.63,-40.16 -62.45,-40.1 C-62.3,-41.18 -62.09,-42.26 -61.84,-43.34 C-61.22,-43.41 -60.61,-43.48 -60,-43.48 ZM-56.6,-43.11 C-56.03,-43 -55.47,-42.9 -54.91,-42.73 C-54.9,-42.73 -54.89,-42.73 -54.88,-42.73 C-54.12,-42.53 -53.73,-42.2 -53.49,-41.68 C-53.22,-40.94 -53.06,-40.18 -52.9,-39.43 C-53.94,-39.66 -54.98,-39.88 -56.03,-40.01 C-56.15,-41.04 -56.37,-42.07 -56.6,-43.11 ZM-63.4,-43.1 C-63.63,-42.07 -63.85,-41.04 -63.97,-40.01 C-65.02,-39.88 -66.06,-39.66 -67.11,-39.43 C-66.95,-40.18 -66.78,-40.93 -66.51,-41.68 C-66.28,-42.21 -65.89,-42.53 -65.12,-42.73 C-65.11,-42.73 -65.1,-42.73 -65.1,-42.73 C-64.53,-42.9 -63.97,-42.99 -63.4,-43.1 ZM-62.56,-38.6 C-60.85,-38.74 -59.15,-38.74 -57.44,-38.6 C-57.3,-36.89 -57.3,-35.18 -57.44,-33.47 C-59.15,-33.33 -60.85,-33.33 -62.56,-33.47 C-62.7,-35.18 -62.7,-36.89 -62.56,-38.6 ZM-64.07,-38.48 C-64.19,-36.85 -64.19,-35.22 -64.07,-33.59 C-65.16,-33.73 -66.25,-33.95 -67.34,-34.21 C-67.48,-35.42 -67.48,-36.64 -67.34,-37.86 C-66.25,-38.12 -65.16,-38.34 -64.07,-38.48 ZM-55.93,-38.48 C-54.84,-38.34 -53.75,-38.12 -52.66,-37.86 C-52.52,-36.64 -52.52,-35.42 -52.66,-34.21 C-53.75,-33.95 -54.84,-33.73 -55.93,-33.59 C-55.87,-34.4 -55.78,-35.22 -55.78,-36.03 C-55.78,-36.85 -55.87,-37.66 -55.93,-38.48 ZM-67.11,-32.64 C-66.07,-32.41 -65.02,-32.19 -63.97,-32.06 C-63.84,-31.01 -63.62,-29.96 -63.39,-28.91 C-63.96,-29.02 -64.52,-29.12 -65.09,-29.29 C-65.1,-29.3 -65.11,-29.3 -65.12,-29.3 C-65.88,-29.5 -66.27,-29.82 -66.51,-30.34 C-66.77,-31.1 -66.95,-31.87 -67.11,-32.64 ZM-52.88,-32.64 C-53.04,-31.87 -53.22,-31.1 -53.49,-30.34 C-53.73,-29.82 -54.11,-29.5 -54.87,-29.3 C-54.88,-29.3 -54.89,-29.3 -54.9,-29.29 C-55.47,-29.12 -56.04,-29.02 -56.61,-28.91 C-56.38,-29.96 -56.16,-31.01 -56.03,-32.06 C-54.98,-32.19 -53.93,-32.41 -52.88,-32.64 ZM-62.45,-31.97 C-60.82,-31.84 -59.18,-31.84 -57.55,-31.97 C-57.7,-30.87 -57.92,-29.77 -58.18,-28.67 C-59.39,-28.54 -60.61,-28.54 -61.82,-28.67 C-62.08,-29.77 -62.3,-30.87 -62.45,-31.97 Z" fill-rule="evenodd" style="fill:#F1F1F1;" />
	</g>
</svg>