<?xml version="1.0" encoding="UTF-8"?>
<!-- Created with Grafika (https://www.grafika.cc/) -->
<svg xmlns="http://www.w3.org/2000/svg" xmlns:svg="http://www.w3.org/2000/svg" xmlns:xlink="http://www.w3.org/1999/xlink" width="24" height="24" viewBox="0 0 24 24" preserveAspectRatio="xMidYMid meet">
	<g transform="matrix(1, 0, 0, 1, 12, 12)">
		<path transform="matrix(1, 0, 0, 1, 59.99522018432617, 35.9999885559082)" d="M-58.64,-39.62 C-59.59,-39.14 -60.4,-39.14 -61.35,-39.62 C-61.71,-39.8 -62.18,-39.65 -62.36,-39.29 C-62.54,-38.94 -62.38,-38.46 -62.03,-38.29 C-60.72,-37.62 -59.27,-37.62 -57.96,-38.29 C-57.61,-38.46 -57.45,-38.94 -57.63,-39.29 C-57.86,-39.74 -58.45,-39.72 -58.64,-39.62 ZM-63.03,-45.32 C-63.8,-44.99 -64.39,-44.36 -64.74,-43.57 Q-65.97,-40.52 -64.74,-37.68 C-64.4,-36.91 -63.83,-36.3 -63.09,-35.96 C-63.99,-35.52 -64.76,-34.91 -65.36,-34.22 C-66.57,-32.85 -67.2,-31.22 -67.2,-29.83 C-67.36,-28.4 -66.65,-27.47 -65.08,-27.05 C-61.7,-26.27 -58.3,-26.27 -54.92,-27.05 C-53.51,-27.35 -52.8,-28.28 -52.8,-29.83 C-52.8,-31.22 -53.43,-32.85 -54.64,-34.22 C-55.24,-34.91 -56.01,-35.53 -56.92,-35.96 C-56.28,-36.32 -55.62,-36.94 -55.26,-37.68 Q-54.03,-40.66 -55.26,-43.57 C-55.61,-44.36 -56.21,-44.99 -56.98,-45.32 C-58.96,-46.21 -61.05,-46.21 -63.03,-45.32 ZM-57.58,-43.95 C-57.18,-43.82 -56.87,-43.49 -56.64,-42.96 C-55.94,-41.37 -55.94,-39.88 -56.64,-38.29 C-56.86,-37.79 -57.18,-37.47 -57.57,-37.31 C-57.57,-37.3 -57.58,-37.3 -57.58,-37.3 C-59.19,-36.44 -60.85,-36.46 -62.43,-37.31 C-62.8,-37.47 -63.11,-37.8 -63.36,-38.29 C-64.06,-39.88 -64.06,-41.38 -63.36,-42.96 C-63.14,-43.43 -62.82,-43.76 -62.42,-43.95 C-60.81,-44.68 -59.19,-44.68 -57.58,-43.95 Z" fill-rule="evenodd" style="fill:#F1F1F1;" />
	</g>
</svg>