<?xml version="1.0" encoding="UTF-8"?>

<!-- Altered-Icons-Library: (https://github.com/dot-alter/Altered-Icons-Pack) -->

<svg xmlns="http://www.w3.org/2000/svg" xmlns:svg="http://www.w3.org/2000/svg" xmlns:xlink="http://www.w3.org/1999/xlink" width="24" height="24" viewBox="0 0 24 24" preserveAspectRatio="xMidYMid meet">
	<g transform="matrix(1, 0, 0, 1, 12.000015258789062, 12)">
		<path transform="matrix(1, 0, 0, 1, -0.01319122314453125, 0.015380859375)" d="M-7.01,-6.98 C-8.27,-6.56 -9.09,-5.41 -9.46,-3.88 C-10.19,-1.3 -10.19,1.31 -9.46,3.9 C-9.09,5.43 -8.26,6.59 -7.01,7 C-2.88,8.39 2.87,8.39 7,7 C8.25,6.59 9.08,5.43 9.45,3.9 C10.18,1.31 10.18,-1.3 9.45,-3.88 C9.08,-5.41 8.26,-6.56 7,-6.98 C2.88,-8.37 -2.89,-8.37 -7.01,-6.98 ZM6.53,-5.55 C7.23,-5.32 7.7,-4.76 7.99,-3.52 C8,-3.51 8,-3.5 8,-3.49 C8.67,-1.15 8.67,1.16 8,3.51 C8,3.52 8,3.53 7.99,3.54 C7.7,4.79 7.23,5.34 6.53,5.57 Q0,7.28 -6.54,5.57 Q-7.56,5.24 -8.01,3.51 Q-9.08,-0 -8.01,-3.52 Q-7.63,-5.13 -6.54,-5.55 Q0.02,-7.26 6.53,-5.55 ZM-0,-1.49 C0.6,-1.49 1.12,-1.23 1.28,-0.89 C1.56,-0.29 1.56,0.31 1.28,0.92 C1.12,1.25 0.6,1.51 -0,1.51 C-0.6,1.51 -1.12,1.25 -1.28,0.92 C-1.57,0.31 -1.57,-0.29 -1.28,-0.89 C-1.12,-1.23 -0.6,-1.49 -0,-1.49 L-0,-1.49 ZM-5,-1.39 C-4.46,-1.39 -3.96,-1.15 -3.81,-0.83 C-3.54,-0.28 -3.54,0.28 -3.81,0.84 C-3.96,1.16 -4.46,1.4 -5,1.4 C-5.55,1.4 -6.05,1.16 -6.19,0.84 C-6.46,0.28 -6.46,-0.28 -6.19,-0.83 C-6.05,-1.15 -5.55,-1.39 -5,-1.39 L-5,-1.39 ZM5,-1.39 C5.54,-1.39 6.04,-1.15 6.19,-0.83 C6.46,-0.28 6.46,0.28 6.19,0.84 C6.04,1.16 5.54,1.4 5,1.4 C4.45,1.4 3.95,1.16 3.81,0.84 C3.54,0.28 3.54,-0.28 3.81,-0.83 C3.95,-1.15 4.45,-1.39 5,-1.39 L5,-1.39 Z" fill-rule="evenodd" style="fill:#FFFFFF;" />
	</g>
</svg>