<?xml version="1.0" encoding="UTF-8"?>

<!-- Altered-Icons: (https://github.com/dot-alter/Altered-Icons-Pack) -->

<svg xmlns="http://www.w3.org/2000/svg" xmlns:svg="http://www.w3.org/2000/svg" xmlns:xlink="http://www.w3.org/1999/xlink" width="24" height="24" viewBox="0 0 24 24" preserveAspectRatio="xMidYMid meet">
	<g transform="matrix(1, 0, 0, 1, 12, 12)">
		<path transform="matrix(1, 0, 0, 1, 60.0047492980957, 36.00000762939453)" d="M-68.44,-42.38 C-68.83,-42.3 -69.11,-41.89 -69.04,-41.5 C-68.97,-41.09 -68.58,-40.82 -68.17,-40.9 C-62.72,-41.89 -57.28,-41.89 -51.83,-40.9 C-51.42,-40.82 -51.03,-41.09 -50.96,-41.5 C-50.89,-41.89 -51.17,-42.3 -51.56,-42.38 C-57.18,-43.4 -62.82,-43.4 -68.44,-42.38 ZM-68.3,-36.74 C-68.72,-36.74 -69.05,-36.41 -69.05,-35.99 C-69.05,-35.58 -68.72,-35.24 -68.3,-35.24 L-51.44,-35.24 C-51.03,-35.24 -50.69,-35.58 -50.69,-35.99 C-50.69,-36.41 -51.03,-36.74 -51.44,-36.74 L-68.3,-36.74 ZM-68.17,-31.02 C-68.58,-31.09 -68.97,-30.82 -69.04,-30.42 C-69.11,-30.03 -68.83,-29.62 -68.44,-29.54 C-62.82,-28.52 -57.18,-28.52 -51.56,-29.54 C-51.17,-29.62 -50.89,-30.03 -50.96,-30.42 C-51.03,-30.81 -51.44,-31.09 -51.83,-31.02 C-57.28,-30.03 -62.72,-30.03 -68.17,-31.02 Z" style="fill:#F1F1F1;" />
	</g>
</svg>