<?xml version="1.0" encoding="UTF-8"?>

<!-- Altered-Icons: (https://github.com/dot-alter/Altered-Icons-Pack) -->

<svg xmlns="http://www.w3.org/2000/svg" xmlns:svg="http://www.w3.org/2000/svg" xmlns:xlink="http://www.w3.org/1999/xlink" width="24" height="24" viewBox="0 0 24 24" preserveAspectRatio="xMidYMid meet">
	<g transform="matrix(1, 0, 0, 1, 12, 12)">
		<path transform="matrix(1, 0, 0, 1, 60, 60.001953125)" d="M-62.42,-68.8 C-62.83,-68.87 -63.21,-68.59 -63.28,-68.18 C-63.4,-67.34 -64.1,-64.9 -64.1,-64.88 C-64.24,-64.45 -64.59,-64.13 -65.48,-63.9 C-65.49,-63.9 -67.34,-63.43 -68.19,-63.29 C-68.58,-63.22 -68.87,-62.81 -68.8,-62.42 C-68.73,-62.03 -68.32,-61.74 -67.93,-61.81 C-66.36,-62.08 -65.1,-62.45 -65.1,-62.45 C-63.93,-62.75 -63.02,-63.41 -62.68,-64.4 C-62.29,-65.44 -62,-66.62 -61.79,-67.95 C-61.73,-68.36 -62.01,-68.74 -62.42,-68.8 ZM-57.58,-68.8 C-57.99,-68.74 -58.27,-68.36 -58.21,-67.95 C-58,-66.62 -57.7,-65.44 -57.32,-64.41 C-56.99,-63.41 -56.07,-62.75 -54.9,-62.45 L-54.9,-62.45 C-53.94,-62.18 -53,-61.97 -52.07,-61.81 C-51.66,-61.74 -51.27,-62.01 -51.2,-62.42 C-51.13,-62.81 -51.42,-63.22 -51.81,-63.29 C-52.4,-63.39 -54.51,-63.9 -54.52,-63.9 C-55.41,-64.13 -55.75,-64.45 -55.9,-64.88 C-55.9,-64.9 -56.59,-67.34 -56.72,-68.18 C-56.79,-68.59 -57.17,-68.87 -57.58,-68.8 ZM-67.93,-58.2 C-68.34,-58.26 -68.73,-57.99 -68.8,-57.58 C-68.87,-57.17 -68.59,-56.79 -68.19,-56.72 C-67.31,-56.57 -66.41,-56.36 -65.49,-56.11 C-65.49,-56.1 -65.48,-56.1 -65.48,-56.1 C-64.59,-55.87 -64.25,-55.55 -64.1,-55.12 C-64.1,-55.1 -63.45,-52.94 -63.28,-51.83 C-63.21,-51.42 -62.83,-51.14 -62.42,-51.2 C-62.01,-51.26 -61.73,-51.65 -61.79,-52.06 C-62,-53.39 -62.29,-54.57 -62.68,-55.6 C-63.01,-56.59 -63.93,-57.25 -65.1,-57.55 L-65.1,-57.55 C-66.06,-57.82 -67,-58.04 -67.93,-58.2 ZM-52.07,-58.2 C-53,-58.04 -53.94,-57.82 -54.9,-57.55 C-56.07,-57.25 -56.99,-56.59 -57.32,-55.6 C-57.71,-54.57 -58,-53.39 -58.21,-52.06 C-58.27,-51.65 -57.99,-51.26 -57.58,-51.2 C-57.17,-51.14 -56.79,-51.42 -56.72,-51.83 C-56.55,-52.94 -55.9,-55.1 -55.9,-55.12 C-55.75,-55.55 -55.41,-55.87 -54.52,-56.1 C-54.51,-56.1 -52.65,-56.57 -51.81,-56.72 C-51.41,-56.79 -51.13,-57.17 -51.2,-57.58 C-51.27,-57.99 -51.66,-58.26 -52.07,-58.2 Z" style="fill:#F1F1F1;" />
	</g>
</svg>