<?xml version="1.0" encoding="UTF-8"?>
<!-- Created with Grafika (https://www.grafika.cc/) -->
<svg xmlns="http://www.w3.org/2000/svg" xmlns:svg="http://www.w3.org/2000/svg" xmlns:xlink="http://www.w3.org/1999/xlink" width="24" height="24" viewBox="0 0 24 24" preserveAspectRatio="xMidYMid meet">
	<g transform="matrix(1, 0, 0, 1, 12, 12)">
		<path transform="matrix(1, 0, 0, 1, 60, 36.00506591796875)" d="M-67.01,-42.99 C-68.26,-42.58 -69.09,-41.43 -69.45,-39.9 C-70.18,-37.32 -70.18,-34.7 -69.45,-32.12 C-69.09,-30.58 -68.26,-29.43 -67,-29.02 C-62.88,-27.62 -57.12,-27.62 -53,-29.02 C-51.74,-29.43 -50.91,-30.58 -50.55,-32.12 C-49.82,-34.7 -49.82,-37.32 -50.55,-39.9 C-50.91,-41.43 -51.74,-42.58 -52.99,-42.99 C-57.12,-44.38 -62.88,-44.38 -67.01,-42.99 ZM-53.47,-41.57 Q-52.41,-41.16 -51.99,-39.51 C-51.33,-37.17 -51.33,-34.86 -51.99,-32.51 C-52,-32.5 -52,-32.49 -52,-32.47 C-52.29,-31.23 -52.76,-30.67 -53.46,-30.45 C-53.47,-30.45 -53.47,-30.44 -53.47,-30.44 C-57.18,-29.18 -62.82,-29.18 -66.53,-30.44 C-66.53,-30.44 -66.53,-30.45 -66.54,-30.45 C-67.24,-30.67 -67.71,-31.23 -68,-32.47 C-68,-32.49 -68,-32.5 -68.01,-32.51 C-68.67,-34.86 -68.67,-37.17 -68.01,-39.51 Q-67.57,-41.22 -66.53,-41.57 C-62.82,-42.82 -57.18,-42.82 -53.47,-41.57 ZM-64.53,-40.53 C-64.54,-40.53 -64.54,-40.53 -64.54,-40.53 C-64.98,-40.34 -65.33,-39.96 -65.52,-39.52 C-65.94,-38.56 -65.94,-37.49 -65.52,-36.53 C-65.37,-36.17 -65.11,-35.86 -64.78,-35.65 C-65.02,-35.49 -65.23,-35.31 -65.41,-35.1 C-65.95,-34.48 -66.24,-33.75 -66.24,-33.12 C-66.31,-32.48 -65.99,-32.06 -65.28,-31.87 C-63.76,-31.52 -62.23,-31.52 -60.71,-31.87 C-60.07,-32.01 -59.75,-32.42 -59.75,-33.12 C-59.75,-33.75 -60.03,-34.48 -60.58,-35.1 C-60.76,-35.31 -60.97,-35.5 -61.22,-35.66 C-60.89,-35.87 -60.63,-36.18 -60.48,-36.53 C-60.05,-37.49 -60.06,-38.56 -60.48,-39.52 L-60.48,-39.52 C-60.67,-39.96 -61.02,-40.34 -61.47,-40.53 L-61.47,-40.53 L-61.47,-40.53 L-61.47,-40.53 C-62.46,-40.97 -63.55,-40.97 -64.53,-40.53 ZM-62.07,-39.16 C-62.07,-39.16 -62.06,-39.15 -62.06,-39.15 C-61.96,-39.11 -61.92,-39.08 -61.85,-38.92 C-61.58,-38.29 -61.58,-37.76 -61.85,-37.13 L-61.85,-37.13 C-61.92,-36.97 -61.96,-36.94 -62.06,-36.9 C-62.06,-36.9 -62.07,-36.89 -62.07,-36.89 C-62.73,-36.6 -63.27,-36.6 -63.93,-36.89 C-63.93,-36.89 -63.94,-36.9 -63.94,-36.9 C-64.04,-36.94 -64.08,-36.97 -64.15,-37.13 L-64.15,-37.13 C-64.42,-37.76 -64.42,-38.29 -64.15,-38.92 C-64.15,-38.92 -64.15,-38.92 -64.15,-38.92 C-64.08,-39.08 -64.04,-39.11 -63.94,-39.15 C-63.94,-39.15 -63.93,-39.16 -63.93,-39.16 C-63.31,-39.44 -62.69,-39.44 -62.07,-39.16 ZM-57.82,-38.24 C-58.23,-38.24 -58.56,-37.9 -58.56,-37.48 C-58.56,-37.07 -58.22,-36.74 -57.8,-36.74 C-56.48,-36.76 -55.03,-36.72 -53.7,-36.59 C-53.29,-36.55 -52.92,-36.85 -52.88,-37.26 C-52.84,-37.67 -53.14,-38.04 -53.55,-38.08 C-54.96,-38.22 -56.46,-38.26 -57.82,-38.24 ZM-57.81,-35.24 C-58.22,-35.24 -58.56,-34.91 -58.56,-34.49 C-58.56,-34.08 -58.22,-33.74 -57.81,-33.74 L-55.17,-33.74 C-54.76,-33.74 -54.42,-34.08 -54.42,-34.49 C-54.42,-34.91 -54.76,-35.24 -55.17,-35.24 L-57.81,-35.24 Z" fill-rule="evenodd" style="fill:#F1F1F1;" />
	</g>
</svg>