<?xml version="1.0" encoding="UTF-8"?>
<!-- Created with Grafika (https://www.grafika.cc/) -->
<svg xmlns="http://www.w3.org/2000/svg" xmlns:svg="http://www.w3.org/2000/svg" xmlns:xlink="http://www.w3.org/1999/xlink" width="24" height="24" viewBox="0 0 24 24" preserveAspectRatio="xMidYMid meet">
	<g transform="matrix(1, 0, 0, 1, 12, 12)">
		<path transform="matrix(1, 0, 0, 1, 59.99998092651367, 35.995235443115234)" d="M-63.03,-45.32 C-63.8,-44.99 -64.39,-44.36 -64.74,-43.57 C-65.56,-41.54 -65.56,-39.58 -64.74,-37.68 C-64.4,-36.91 -63.83,-36.3 -63.09,-35.96 C-63.99,-35.52 -64.76,-34.91 -65.36,-34.22 C-66.57,-32.85 -67.2,-31.22 -67.2,-29.83 C-67.36,-28.4 -66.65,-27.47 -65.08,-27.05 C-61.7,-26.27 -58.3,-26.27 -54.92,-27.05 C-54.11,-27.23 -53.52,-27.61 -53.18,-28.2 C-53.35,-28.15 -53.54,-28.12 -53.73,-28.12 C-54.95,-28.12 -55.98,-29.15 -55.98,-30.37 L-55.98,-30.75 L-56.36,-30.75 C-57.58,-30.75 -58.61,-31.78 -58.61,-33 C-58.61,-34.23 -57.58,-35.25 -56.36,-35.25 L-55.98,-35.25 L-55.98,-35.41 C-56.27,-35.62 -56.59,-35.8 -56.92,-35.96 C-56.28,-36.32 -55.62,-36.94 -55.26,-37.68 C-54.44,-39.66 -54.44,-41.63 -55.26,-43.57 C-55.61,-44.36 -56.21,-44.99 -56.98,-45.32 C-58.96,-46.21 -61.05,-46.21 -63.03,-45.32 ZM-57.58,-43.95 C-57.18,-43.82 -56.87,-43.49 -56.64,-42.96 C-55.94,-41.37 -55.94,-39.88 -56.64,-38.29 C-56.86,-37.79 -57.18,-37.47 -57.57,-37.31 C-57.57,-37.3 -57.58,-37.3 -57.58,-37.3 C-59.19,-36.44 -60.85,-36.46 -62.43,-37.31 C-62.8,-37.47 -63.11,-37.8 -63.36,-38.29 C-64.06,-39.88 -64.06,-41.38 -63.36,-42.96 C-63.14,-43.43 -62.82,-43.76 -62.42,-43.95 C-60.81,-44.68 -59.19,-44.68 -57.58,-43.95 ZM-53.73,-36.39 C-54.14,-36.39 -54.48,-36.05 -54.48,-35.64 L-54.48,-33.75 L-56.36,-33.75 C-56.77,-33.75 -57.11,-33.42 -57.11,-33 C-57.11,-32.59 -56.77,-32.25 -56.36,-32.25 L-54.48,-32.25 L-54.48,-30.37 C-54.48,-29.96 -54.14,-29.62 -53.73,-29.62 C-53.31,-29.62 -52.98,-29.96 -52.98,-30.37 L-52.98,-32.25 L-51.1,-32.25 C-50.68,-32.25 -50.35,-32.59 -50.35,-33 C-50.35,-33.42 -50.68,-33.75 -51.1,-33.75 L-52.98,-33.75 L-52.98,-35.64 Q-52.98,-36.05 -53.73,-36.39 Z" fill-rule="evenodd" style="fill:#F1F1F1;" />
	</g>
</svg>