<?xml version="1.0" encoding="UTF-8"?>
<!-- Created with Grafika (https://www.grafika.cc/) -->
<svg xmlns="http://www.w3.org/2000/svg" xmlns:svg="http://www.w3.org/2000/svg" xmlns:xlink="http://www.w3.org/1999/xlink" width="24" height="24" viewBox="0 0 24 24" preserveAspectRatio="xMidYMid meet">
	<g transform="matrix(1, 0, 0, 1, 12, 12)">
		<path transform="matrix(1, 0, 0, 1, 59.99763107299805, 36.00236892700195)" d="M-63.02,-45.1 C-63.78,-44.77 -64.38,-44.14 -64.72,-43.34 C-65.55,-41.31 -65.55,-39.35 -64.72,-37.46 C-64.39,-36.69 -63.82,-36.07 -63.08,-35.74 C-63.98,-35.3 -64.75,-34.69 -65.35,-34 C-66.56,-32.63 -67.19,-30.99 -67.19,-29.61 C-67.35,-28.17 -66.64,-27.25 -65.07,-26.83 C-61.69,-26.05 -58.29,-26.05 -54.91,-26.83 C-53.49,-27.13 -52.79,-28.06 -52.79,-29.61 C-52.79,-29.91 -52.81,-30.22 -52.87,-30.53 L-56.37,-30.53 C-57.6,-30.53 -58.62,-31.56 -58.62,-32.78 C-58.62,-34.01 -57.6,-35.03 -56.37,-35.03 L-55.74,-35.03 C-56.1,-35.3 -56.49,-35.54 -56.91,-35.74 C-56.27,-36.1 -55.61,-36.71 -55.25,-37.46 C-54.43,-39.44 -54.43,-41.4 -55.25,-43.34 C-55.6,-44.14 -56.2,-44.77 -56.96,-45.1 C-58.95,-45.99 -61.03,-45.99 -63.02,-45.1 ZM-57.57,-43.73 C-57.17,-43.6 -56.86,-43.27 -56.63,-42.74 C-55.93,-41.15 -55.93,-39.66 -56.63,-38.06 C-56.85,-37.57 -57.16,-37.24 -57.56,-37.08 C-57.56,-37.08 -57.57,-37.08 -57.57,-37.08 C-59.18,-36.21 -60.84,-36.24 -62.42,-37.08 C-62.79,-37.25 -63.1,-37.57 -63.35,-38.06 C-64.05,-39.66 -64.05,-41.15 -63.35,-42.74 C-63.13,-43.21 -62.81,-43.54 -62.41,-43.73 C-60.8,-44.45 -59.18,-44.45 -57.57,-43.73 ZM-56.37,-33.53 C-56.79,-33.53 -57.12,-33.2 -57.12,-32.78 C-57.12,-32.37 -56.79,-32.03 -56.37,-32.03 L-51.11,-32.03 C-50.7,-32.03 -50.36,-32.37 -50.36,-32.78 C-50.36,-33.2 -50.7,-33.53 -51.11,-33.53 L-56.37,-33.53 Z" fill-rule="evenodd" style="fill:#F1F1F1;" />
	</g>
</svg>