<?xml version="1.0" encoding="UTF-8"?>

<!-- Altered-Icons: (https://github.com/dot-alter/Altered-Icons-Pack) -->

<svg xmlns="http://www.w3.org/2000/svg" 
     xmlns:svg="http://www.w3.org/2000/svg"
     xmlns:xlink="http://www.w3.org/1999/xlink"
     width="24" 
     height="24" 
     viewBox="0 0 24 24" 
     preserveAspectRatio="xMidYMid meet">
	<g transform="matrix(1, 0, 0, 1, 12, 12)">
		<path transform="matrix(1, 0, 0, 1, 59.99900817871094, 36.00495529174805)" d="M-65.5,-44.18 L-65.5,-44.18 C-66.59,-43.89 -67.46,-43.24 -67.89,-42.29 C-67.9,-42.27 -67.91,-42.25 -67.91,-42.23 C-69.38,-38.11 -69.36,-33.88 -67.91,-29.79 C-67.91,-29.77 -67.9,-29.75 -67.89,-29.74 C-67.46,-28.79 -66.59,-28.14 -65.5,-27.85 L-65.5,-27.85 C-61.85,-26.77 -58.16,-26.77 -54.49,-27.85 C-53.4,-28.13 -52.53,-28.79 -52.1,-29.74 C-52.09,-29.75 -52.09,-29.77 -52.08,-29.79 C-50.63,-33.88 -50.63,-38.15 -52.08,-42.23 C-52.09,-42.26 -52.1,-42.28 -52.11,-42.3 C-52.54,-43.24 -53.41,-43.89 -54.5,-44.18 L-54.5,-44.18 L-54.51,-44.18 C-58.15,-45.24 -61.84,-45.24 -65.5,-44.18 ZM-54.91,-42.73 C-54.9,-42.73 -54.89,-42.73 -54.88,-42.73 C-54.12,-42.53 -53.73,-42.2 -53.49,-41.68 C-52.17,-37.94 -52.17,-34.09 -53.49,-30.34 C-53.71,-29.85 -54.08,-29.53 -54.78,-29.33 C-54.75,-29.51 -54.72,-29.7 -54.72,-29.91 C-54.72,-30.93 -55.19,-32.12 -56.07,-33.13 C-56.46,-33.57 -56.95,-33.97 -57.52,-34.28 C-56.99,-34.56 -56.57,-35.03 -56.32,-35.59 L-56.32,-35.6 C-55.68,-37.07 -55.68,-38.63 -56.32,-40.1 L-56.32,-40.1 C-56.59,-40.72 -57.07,-41.23 -57.69,-41.5 L-57.69,-41.5 L-57.69,-41.5 L-57.69,-41.5 C-59.2,-42.17 -60.81,-42.17 -62.31,-41.5 L-62.31,-41.5 L-62.32,-41.5 C-62.32,-41.5 -62.32,-41.5 -62.32,-41.5 C-62.93,-41.23 -63.41,-40.72 -63.68,-40.09 C-64.32,-38.63 -64.32,-37.06 -63.68,-35.59 C-63.43,-35.02 -63.01,-34.56 -62.47,-34.28 C-63.03,-33.97 -63.52,-33.57 -63.92,-33.13 C-64.8,-32.12 -65.26,-30.93 -65.26,-29.91 C-65.28,-29.71 -65.28,-29.52 -65.25,-29.34 C-65.92,-29.54 -66.28,-29.86 -66.51,-30.34 C-67.82,-34.1 -67.85,-37.9 -66.51,-41.68 C-66.28,-42.21 -65.89,-42.53 -65.12,-42.73 C-65.11,-42.73 -65.1,-42.73 -65.1,-42.73 C-61.69,-43.72 -58.3,-43.72 -54.91,-42.73 ZM-58.29,-40.13 C-58.29,-40.13 -58.29,-40.12 -58.28,-40.12 C-58.02,-40.01 -57.85,-39.84 -57.7,-39.5 C-57.2,-38.36 -57.2,-37.33 -57.7,-36.2 C-57.85,-35.85 -58.01,-35.69 -58.28,-35.58 C-58.29,-35.57 -58.29,-35.57 -58.29,-35.57 C-59.47,-35.04 -60.53,-35.04 -61.71,-35.57 C-61.71,-35.57 -61.71,-35.57 -61.72,-35.58 C-61.99,-35.69 -62.15,-35.85 -62.3,-36.2 C-62.8,-37.33 -62.8,-38.37 -62.3,-39.5 L-62.3,-39.5 L-62.3,-39.5 C-62.16,-39.84 -61.99,-40.01 -61.72,-40.12 L-61.72,-40.12 L-61.71,-40.12 L-61.71,-40.12 L-61.71,-40.13 L-61.71,-40.13 L-61.71,-40.13 C-60.57,-40.64 -59.43,-40.64 -58.29,-40.13 Z" fill-rule="evenodd" style="fill:#F1F1F1;" />
	</g>
</svg>