<?xml version="1.0" encoding="UTF-8"?>

<!-- Altered-Icons-Library: (https://github.com/dot-alter/Altered-Icons-Pack) -->

<svg xmlns="http://www.w3.org/2000/svg" xmlns:svg="http://www.w3.org/2000/svg" xmlns:xlink="http://www.w3.org/1999/xlink" width="24" height="24" viewBox="0 0 24 24" preserveAspectRatio="xMidYMid meet">
	<g transform="matrix(1, 0, 0, 1, 12.000030517578125, 12.00006103515625)">
		<path transform="matrix(1, 0, 0, 1, 60.035133361816406, 36.0226936340332)" d="M-60.03,-45.58 C-61.87,-45.58 -63.71,-45.28 -65.55,-44.66 C-66.43,-44.33 -67.08,-43.66 -67.49,-42.66 C-69.19,-39.33 -69.55,-35.66 -68.59,-31.66 C-68.34,-30.72 -67.74,-30.08 -66.78,-29.74 L-66.78,-28.17 C-66.78,-27.2 -66,-26.42 -65.03,-26.42 C-64.06,-26.42 -63.28,-27.2 -63.28,-28.17 L-63.28,-28.85 C-61.12,-28.39 -58.95,-28.39 -56.78,-28.85 L-56.78,-28.17 C-56.78,-27.2 -56,-26.42 -55.03,-26.42 C-54.06,-26.42 -53.28,-27.2 -53.28,-28.17 L-53.28,-29.74 C-52.33,-30.08 -51.73,-30.72 -51.48,-31.66 C-50.52,-35.66 -50.88,-39.33 -52.58,-42.66 C-52.99,-43.67 -53.63,-44.34 -54.52,-44.66 C-56.36,-45.28 -58.19,-45.58 -60.03,-45.58 ZM-60.04,-44.08 C-58.37,-44.08 -56.7,-43.81 -55.03,-43.25 C-54.55,-43.07 -54.25,-42.8 -53.97,-42.1 C-53.93,-42.02 -53.74,-41.57 -53.51,-40.97 C-57.86,-42.44 -62.23,-42.43 -66.55,-40.98 C-66.42,-41.31 -66.11,-42.06 -66.1,-42.1 C-65.81,-42.8 -65.52,-43.06 -65.04,-43.24 C-63.37,-43.8 -61.71,-44.08 -60.04,-44.08 ZM-60.04,-40.65 C-57.68,-40.65 -55.31,-40.18 -52.93,-39.24 C-52.45,-37.38 -52.38,-35.41 -52.73,-33.29 C-53.1,-33.67 -53.53,-33.96 -54.03,-34.15 C-58.03,-35.72 -62.04,-35.72 -66.04,-34.15 C-66.54,-33.96 -66.96,-33.67 -67.33,-33.29 C-67.69,-35.41 -67.61,-37.38 -67.13,-39.24 C-64.77,-40.18 -62.41,-40.65 -60.04,-40.65 ZM-64,-33.42 C-63.22,-33.42 -62.58,-32.78 -62.58,-32 C-62.58,-31.22 -63.22,-30.58 -64,-30.58 C-64.78,-30.58 -65.42,-31.22 -65.42,-32 C-65.42,-32.78 -64.78,-33.42 -64,-33.42 ZM-56.05,-33.41 C-55.27,-33.41 -54.63,-32.78 -54.63,-32 C-54.63,-31.21 -55.27,-30.58 -56.05,-30.58 C-56.83,-30.58 -57.47,-31.21 -57.47,-32 C-57.47,-32.78 -56.83,-33.41 -56.05,-33.41 Z" fill-rule="evenodd" style="fill:#FFFFFF;" />
	</g>
</svg>