<?xml version="1.0" encoding="UTF-8"?>

<!-- Altered-Icons: (https://github.com/dot-alter/Altered-Icons-Pack) -->

<svg xmlns="http://www.w3.org/2000/svg" xmlns:svg="http://www.w3.org/2000/svg" xmlns:xlink="http://www.w3.org/1999/xlink" width="24" height="24" viewBox="0 0 24 24" preserveAspectRatio="xMidYMid meet">
	<g transform="matrix(1, 0, 0, 1, 12.000045776367188, 12.00006103515625)">
		<path transform="matrix(1, 0, 0, 1, -0.00617218017578125, 0.00811767578125)" d="M-4.32,-8.86 C-5.51,-8.2 -6.48,-7.22 -7.04,-6.01 C-7.32,-5.96 -7.91,-5.67 -8.15,-5.24 C-8.83,-4.05 -9.12,-2.24 -8.8,-0.83 C-8.69,-0.33 -8.2,0.18 -7.92,0.34 C-7.9,2.07 -7.79,3.8 -7.47,4.94 C-7.47,4.94 -7.46,4.95 -7.46,4.95 C-5.45,11.68 5.46,11.68 7.47,4.96 C7.47,4.96 7.48,4.95 7.48,4.95 C7.8,3.81 7.91,2.07 7.93,0.34 C8.21,0.18 8.7,-0.33 8.81,-0.83 C9.13,-2.24 8.84,-4.05 8.16,-5.24 C7.92,-5.67 7.33,-5.96 7.04,-6.01 C6.48,-7.22 5.52,-8.2 4.33,-8.86 C1.65,-10.34 -1.64,-10.34 -4.32,-8.86 ZM3.6,-7.55 C4.7,-6.94 5.55,-6.08 5.88,-5.11 C5.89,-5.1 5.89,-5.09 5.89,-5.08 C6.26,-4.11 6.48,-2.19 6.5,-0.29 C6.51,1.6 6.32,3.53 6.03,4.54 C6.03,4.54 6.03,4.54 6.03,4.54 C4.44,9.8 -4.43,9.8 -6.02,4.53 L-6.02,4.53 C-6.31,3.52 -6.5,1.59 -6.49,-0.3 C-6.47,-2.2 -6.25,-4.12 -5.88,-5.09 C-5.88,-5.1 -5.88,-5.11 -5.88,-5.11 C-5.55,-6.08 -4.7,-6.94 -3.59,-7.55 C-1.38,-8.77 1.39,-8.77 3.6,-7.55 ZM-2.82,-2.32 C-3.22,-2.37 -3.61,-2.06 -3.66,-1.67 C-3.83,-0.3 -3.86,0.8 -3.71,1.69 C-3.64,2.08 -3.23,2.37 -2.84,2.3 C-2.43,2.23 -2.16,1.84 -2.23,1.44 C-2.34,0.79 -2.33,-0.2 -2.17,-1.48 C-2.12,-1.88 -2.43,-2.27 -2.82,-2.32 ZM2.85,-2.32 C2.46,-2.27 2.15,-1.88 2.2,-1.48 C2.36,-0.2 2.37,0.8 2.27,1.44 C2.2,1.85 2.47,2.23 2.88,2.3 C3.29,2.37 3.68,2.09 3.74,1.69 C3.89,0.8 3.86,-0.3 3.69,-1.67 C3.64,-2.06 3.25,-2.37 2.85,-2.32 ZM0,1.88 C-1.27,1.88 -2.46,2.58 -3.54,3.78 C-3.67,3.93 -3.74,4.12 -3.73,4.32 C-3.72,4.52 -3.64,4.71 -3.49,4.84 C-3.34,4.97 -3.15,5.04 -2.95,5.03 C-2.75,5.02 -2.56,4.93 -2.43,4.79 L-1.67,4.15 C-1.88,4.5 -1.66,4.97 -1.26,5.03 C-1.06,5.05 -0.86,5 -0.71,4.88 L0,4.35 L0.71,4.88 C0.87,5 1.07,5.05 1.27,5.03 C1.67,4.97 1.89,4.5 1.68,4.15 L2.44,4.79 C2.7,5.08 3.2,5.11 3.5,4.84 C3.79,4.57 3.82,4.07 3.55,3.78 C2.47,2.58 1.28,1.88 0,1.88 Z" fill-rule="evenodd" style="fill:#FFFFFF;" />
	</g>
</svg>