<?xml version="1.0" encoding="UTF-8"?>
<!-- Created with Grafika (https://www.grafika.cc/) -->
<svg xmlns="http://www.w3.org/2000/svg" xmlns:svg="http://www.w3.org/2000/svg" xmlns:xlink="http://www.w3.org/1999/xlink" width="23.99" height="23.99" viewBox="0 0 23.99 23.99" preserveAspectRatio="xMidYMid meet">
	<g transform="matrix(1, 0, 0, 1, 11.995223999023438, 11.9952392578125)">
		<path d="M-5.75,-8.7 C-7.12,-8.11 -8.15,-7.03 -8.78,-5.58 Q-11.25,0.01 -8.78,5.58 C-8.15,7.03 -7.1,8.11 -5.74,8.69 Q-0,11.31 5.73,8.69 C7.1,8.11 8.14,7.03 8.77,5.58 Q11.23,0.01 8.77,-5.58 C8.14,-7.03 7.1,-8.11 5.74,-8.7 C1.94,-10.4 -1.96,-10.4 -5.75,-8.7 ZM5.13,-7.33 Q-0,-9.65 -5.16,-7.33 Q-6.7,-6.7 -7.41,-4.97 C-8.87,-1.63 -8.87,1.62 -7.41,4.98 Q-6.76,6.75 -5.14,7.32 C-1.68,8.87 1.67,8.87 5.13,7.32 Q6.66,6.66 7.4,4.98 C8.87,1.62 8.86,-1.62 7.4,-4.97 C6.89,-6.15 6.15,-6.89 5.13,-7.33 ZM5.79,-0.9 C5.6,-1.1 5.31,-1.24 5.01,-1.24 C3.85,-1.4 2.69,-1.43 1.53,-1.48 C1.48,-2.64 1.45,-3.8 1.29,-4.95 C1.29,-5.25 1.15,-5.55 0.94,-5.74 C0.91,-5.76 0.88,-5.79 0.85,-5.81 C0.59,-5.99 0.31,-6.03 0.04,-6.03 C-0.24,-6.03 -0.52,-5.99 -0.78,-5.81 C-1.03,-5.63 -1.21,-5.3 -1.21,-4.95 C-1.37,-3.8 -1.4,-2.64 -1.45,-1.48 C-2.63,-1.43 -3.81,-1.4 -4.99,-1.24 C-5.33,-1.24 -5.69,-1.04 -5.84,-0.77 C-5.99,-0.5 -6,-0.24 -6,0.01 C-6,0.25 -5.99,0.52 -5.84,0.78 C-5.69,1.05 -5.33,1.26 -4.99,1.26 C-3.81,1.42 -2.63,1.45 -1.45,1.5 C-1.41,2.68 -1.37,3.87 -1.21,5.05 C-1.21,5.39 -1,5.74 -0.74,5.89 C-0.47,6.04 -0.21,6.06 0.04,6.06 C0.29,6.06 0.55,6.04 0.81,5.89 C1.08,5.74 1.29,5.39 1.29,5.05 C1.45,3.86 1.49,2.68 1.53,1.5 C2.69,1.45 3.85,1.42 5.01,1.26 C5.35,1.26 5.69,1.08 5.87,0.82 C6.04,0.56 6.09,0.28 6.09,0.01 C6.09,-0.27 6.04,-0.55 5.87,-0.81 C5.84,-0.84 5.82,-0.87 5.79,-0.9 Z" fill-rule="evenodd" style="fill:#F1F1F1;" />
	</g>
</svg>