<?xml version="1.0" encoding="UTF-8"?>
<!-- Created with Grafika (https://www.grafika.cc/) -->
<svg xmlns="http://www.w3.org/2000/svg" xmlns:svg="http://www.w3.org/2000/svg" xmlns:xlink="http://www.w3.org/1999/xlink" width="24" height="24" viewBox="0 0 24 24" preserveAspectRatio="xMidYMid meet">
	<g transform="matrix(1, 0, 0, 1, 12.000007629394531, 12)">
		<path transform="matrix(1, 0, 0, 1, 60.0000114440918, 35.995235443115234)" d="M-65.75,-44.71 C-67.12,-44.12 -68.15,-43.03 -68.78,-41.58 C-70.42,-37.86 -70.42,-34.14 -68.78,-30.43 Q-67.77,-28.23 -65.74,-27.31 C-61.91,-25.57 -58.09,-25.57 -54.27,-27.31 C-52.9,-27.89 -51.86,-28.97 -51.22,-30.43 C-49.59,-34.14 -49.59,-37.86 -51.22,-41.58 Q-52.2,-43.82 -54.26,-44.71 C-58.06,-46.41 -61.96,-46.41 -65.75,-44.71 ZM-54.77,-43.28 Q-60,-45.45 -65.16,-43.33 C-66.18,-42.91 -66.93,-42.13 -67.4,-40.98 Q-69.45,-36 -67.28,-30.76 C-63.48,-35.32 -59.31,-39.5 -54.77,-43.28 ZM-52.76,-41.28 Q-50.49,-35.99 -52.6,-31.03 C-53.1,-29.91 -53.85,-29.13 -54.87,-28.68 Q-60,-26.52 -65,-28.79 C-60.34,-32.5 -56.44,-36.62 -52.76,-41.28 Z" fill-rule="evenodd" style="fill:#F1F1F1;" />
	</g>
</svg>