<?xml version="1.0" encoding="UTF-8"?>
<!-- Created with Grafika (https://www.grafika.cc/) -->
<svg xmlns="http://www.w3.org/2000/svg" xmlns:svg="http://www.w3.org/2000/svg" xmlns:xlink="http://www.w3.org/1999/xlink" width="24" height="24" viewBox="0 0 24 24" preserveAspectRatio="xMidYMid meet">
	<g transform="matrix(1, 0, 0, 1, 11.999984741210938, 12)">
		<path transform="matrix(1, 0, 0, 1, 60.01211166381836, 36.0047607421875)" d="M-65.75,-44.71 C-67.12,-44.12 -68.15,-43.03 -68.78,-41.58 Q-71.25,-36 -68.78,-30.43 C-68.15,-28.97 -67.1,-27.89 -65.74,-27.31 Q-60,-24.7 -54.27,-27.31 C-52.9,-27.89 -51.86,-28.97 -51.23,-30.43 Q-48.77,-36 -51.23,-41.58 C-51.86,-43.03 -52.9,-44.12 -54.26,-44.71 C-58.06,-46.41 -61.96,-46.41 -65.75,-44.71 ZM-54.87,-43.34 Q-60,-45.66 -65.16,-43.33 Q-66.7,-42.7 -67.41,-40.98 C-68.87,-37.64 -68.87,-34.38 -67.41,-31.03 Q-66.76,-29.26 -65.14,-28.68 C-61.68,-27.13 -58.33,-27.13 -54.87,-28.68 Q-53.34,-29.35 -52.6,-31.03 C-51.13,-34.38 -51.14,-37.63 -52.6,-40.98 C-53.11,-42.15 -53.85,-42.9 -54.87,-43.34 ZM-65.56,-31.28 Q-61.98,-37.91 -55.35,-41.49 C-54.6,-41.91 -54.26,-41.57 -54.64,-40.78 Q-57.97,-33.91 -64.85,-30.57 C-65.55,-30.24 -65.91,-30.59 -65.56,-31.28 Z" fill-rule="evenodd" style="fill:#F1F1F1;" />
	</g>
</svg>