<?xml version="1.0" encoding="UTF-8"?>

<!-- Altered-Icons: (https://github.com/dot-alter/Altered-Icons-Pack) -->

<svg xmlns="http://www.w3.org/2000/svg" xmlns:svg="http://www.w3.org/2000/svg" xmlns:xlink="http://www.w3.org/1999/xlink" width="24" height="24" viewBox="0 0 24 24" preserveAspectRatio="xMidYMid meet">
	<g transform="matrix(1, 0, 0, 1, 12, 12)">
		<path transform="matrix(0.9999999403953552, 0, 0, 0.9999999403953552, 59.98578643798828, 36.01519775390625)" d="M-54.17,-43.31 C-54.19,-43.31 -54.21,-43.31 -54.23,-43.31 C-54.38,-43.3 -54.53,-43.23 -54.69,-43.07 C-56.6,-41.46 -58.21,-40.01 -60,-38.27 C-61.79,-40.01 -63.37,-41.45 -65.29,-43.07 C-65.47,-43.25 -65.65,-43.32 -65.83,-43.31 C-66.13,-43.3 -66.43,-43.06 -66.73,-42.75 C-67.22,-42.27 -67.55,-41.79 -67.06,-41.3 C-65.44,-39.38 -64.01,-37.78 -62.27,-35.99 C-64.01,-34.21 -65.42,-32.62 -67.03,-30.71 C-67.5,-30.24 -67.16,-29.67 -66.74,-29.25 C-66.32,-28.84 -65.75,-28.46 -65.26,-28.95 C-63.35,-30.56 -61.78,-31.96 -60,-33.7 C-58.22,-31.96 -56.61,-30.56 -54.7,-28.95 C-54.23,-28.48 -53.65,-28.83 -53.24,-29.25 C-52.82,-29.66 -52.44,-30.23 -52.93,-30.72 C-54.54,-32.63 -55.97,-34.22 -57.71,-36 C-55.96,-37.79 -54.53,-39.39 -52.92,-41.31 C-52.43,-41.79 -52.74,-42.26 -53.23,-42.75 C-53.54,-43.06 -53.85,-43.31 -54.17,-43.31 Z" fill-rule="evenodd" style="fill:#F1F1F1;" />
	</g>
</svg>