<?xml version="1.0" encoding="UTF-8"?>

<!-- Altered-Icons: (https://github.com/dot-alter/Altered-Icons-Pack) -->

<svg xmlns="http://www.w3.org/2000/svg" xmlns:svg="http://www.w3.org/2000/svg" xmlns:xlink="http://www.w3.org/1999/xlink" width="24" height="24" viewBox="0 0 24 24" preserveAspectRatio="xMidYMid meet">
	<g transform="matrix(1, 0, 0, 1, 12, 12)">
		<path transform="matrix(1, 0, 0, 1, 59.9999885559082, 35.995235443115234)" d="M-63.88,-45.46 C-65.42,-45.1 -66.56,-44.27 -66.98,-43.02 C-68.79,-38.51 -68.9,-33.31 -67.39,-27.49 L-68.5,-27.49 C-68.91,-27.49 -69.25,-27.15 -69.25,-26.74 C-69.25,-26.32 -68.91,-25.99 -68.5,-25.99 L-63.8,-25.99 C-61.94,-25.48 -59.97,-25.05 -57.88,-24.72 C-56.96,-24.57 -56.19,-25.3 -56.01,-25.99 L-51.5,-25.99 C-51.09,-25.99 -50.75,-26.32 -50.75,-26.74 C-50.75,-27.15 -51.09,-27.49 -51.5,-27.49 L-52.53,-27.49 C-51.06,-33.33 -51.21,-38.54 -53.04,-43.05 L-53.04,-43.05 C-53.52,-44.26 -54.63,-45.07 -56.1,-45.46 C-58.69,-46.19 -61.3,-46.19 -63.88,-45.46 ZM-56.51,-44.01 C-55.39,-43.79 -54.7,-43.28 -54.43,-42.5 C-52.84,-38.24 -52.72,-33.24 -54.09,-27.49 L-55.79,-27.49 C-55.31,-31.45 -55.35,-35.54 -55.91,-39.75 C-55.91,-39.76 -55.91,-39.77 -55.92,-39.78 C-56.11,-40.94 -56.77,-41.89 -57.78,-42.17 C-59.72,-42.79 -62.06,-43.16 -64.66,-43.39 C-64.3,-43.67 -63.52,-44.01 -63.5,-44.01 C-61.17,-44.67 -58.84,-44.67 -56.51,-44.01 ZM-58.82,-34.67 C-58.16,-34.67 -57.63,-34.01 -57.63,-33.19 C-57.63,-32.38 -58.16,-31.71 -58.82,-31.71 C-59.47,-31.71 -60,-32.38 -60,-33.19 C-60,-34.01 -59.47,-34.67 -58.82,-34.67 Z" fill-rule="evenodd" style="fill:#F1F1F1;" />
	</g>
</svg>