<?xml version="1.0" encoding="UTF-8"?>
<!-- Created with Grafika (https://www.grafika.cc/) -->
<svg xmlns="http://www.w3.org/2000/svg" xmlns:svg="http://www.w3.org/2000/svg" xmlns:xlink="http://www.w3.org/1999/xlink" width="24" height="24" viewBox="0 0 24 24" preserveAspectRatio="xMidYMid meet">
	<g transform="matrix(1, 0, 0, 1, 12, 12)">
		<path transform="matrix(1, 0, 0, 1, 59.99998092651367, 35.9952392578125)" d="M-60.06,-46.55 C-63.87,-46.55 -65.88,-43.09 -65.35,-39.98 Q-67.36,-39.57 -67.95,-38.05 C-67.95,-38.04 -67.95,-38.04 -67.95,-38.04 Q-69.51,-34.12 -67.95,-29.78 C-67.52,-28.84 -66.65,-28.18 -65.56,-27.9 L-65.56,-27.9 L-65.56,-27.9 Q-60.06,-26.05 -54.54,-27.9 C-53.46,-28.18 -52.59,-28.84 -52.16,-29.78 Q-50.38,-34.17 -52.17,-38.06 Q-52.82,-39.57 -54.77,-39.98 C-54.24,-43.1 -56.25,-46.55 -60.06,-46.55 ZM-60.06,-43.55 C-58.19,-43.55 -57.44,-42.31 -57.7,-40.57 C-59.26,-40.77 -60.85,-40.77 -62.42,-40.57 C-62.68,-42.31 -61.93,-43.55 -60.06,-43.55 ZM-65.18,-38.48 Q-60.05,-39.96 -54.93,-38.48 C-54.16,-38.28 -53.77,-37.96 -53.53,-37.43 C-53.53,-37.42 -53.52,-37.41 -53.52,-37.41 C-52.49,-35.29 -52.47,-33.02 -53.53,-30.39 C-53.77,-29.87 -54.16,-29.55 -54.93,-29.35 C-54.94,-29.34 -54.95,-29.34 -54.96,-29.34 C-58.37,-28.32 -61.75,-28.32 -65.15,-29.34 C-65.16,-29.34 -65.17,-29.34 -65.18,-29.35 C-65.95,-29.55 -66.34,-29.87 -66.58,-30.4 C-67.55,-32.58 -67.55,-35.25 -66.58,-37.43 C-66.34,-37.96 -65.95,-38.28 -65.18,-38.48 ZM-60.81,-35.11 C-61,-35.05 -61.15,-34.94 -61.23,-34.8 L-61.23,-34.8 C-61.46,-34.43 -61.46,-34.05 -61.23,-33.68 C-61.14,-33.53 -60.79,-33.36 -60.75,-33.35 L-60.75,-32.93 C-60.75,-32.43 -60.5,-32.18 -60,-32.18 C-59.5,-32.18 -59.25,-32.43 -59.25,-32.93 L-59.25,-33.35 C-59.21,-33.36 -58.86,-33.53 -58.77,-33.68 C-58.54,-34.05 -58.54,-34.43 -58.77,-34.8 C-58.85,-34.94 -59,-35.05 -59.19,-35.11 C-59.73,-35.28 -60.27,-35.28 -60.81,-35.11 Z" style="fill:#F1F1F1;" />
	</g>
</svg>