<?xml version="1.0" encoding="UTF-8"?>

<!-- Altered-Icons: (https://github.com/dot-alter/Altered-Icons-Pack) -->

<svg xmlns="http://www.w3.org/2000/svg" xmlns:svg="http://www.w3.org/2000/svg" xmlns:xlink="http://www.w3.org/1999/xlink" width="24" height="24" viewBox="0 0 24 24" preserveAspectRatio="xMidYMid meet">
	<g transform="matrix(1, 0, 0, 1, 11.995223999023438, 11.9952392578125)">
		<path d="M-5.75,-8.7 C-7.12,-8.11 -8.15,-7.03 -8.78,-5.58 Q-11.25,0.01 -8.78,5.58 C-8.15,7.03 -7.1,8.11 -5.74,8.69 Q-0,11.31 5.73,8.69 C7.1,8.11 8.14,7.03 8.77,5.58 Q11.23,0.01 8.77,-5.58 C8.14,-7.03 7.1,-8.11 5.74,-8.7 C1.94,-10.4 -1.96,-10.4 -5.75,-8.7 ZM5.13,-7.33 Q-0,-9.65 -5.16,-7.33 Q-6.7,-6.7 -7.41,-4.97 C-8.87,-1.63 -8.87,1.62 -7.41,4.98 Q-6.76,6.75 -5.14,7.32 C-1.68,8.87 1.67,8.87 5.13,7.32 Q6.66,6.66 7.4,4.98 C8.87,1.62 8.86,-1.62 7.4,-4.97 C6.89,-6.15 6.15,-6.89 5.13,-7.33 ZM-5,-1.25 C-1.67,-1.7 1.67,-1.7 5,-1.25 C5.34,-1.25 5.68,-1.07 5.86,-0.81 C6.03,-0.56 6.08,-0.27 6.08,0 C6.08,0.28 6.03,0.56 5.86,0.81 C5.68,1.07 5.34,1.25 5,1.25 C1.67,1.71 -1.67,1.71 -5,1.25 C-5.34,1.25 -5.7,1.04 -5.85,0.78 C-6,0.51 -6.01,0.25 -6.01,0 C-6.01,-0.25 -6,-0.51 -5.85,-0.77 C-5.7,-1.04 -5.34,-1.25 -5,-1.25 Z" fill-rule="evenodd" style="fill:#F1F1F1;" />
	</g>
</svg>