<?xml version="1.0" encoding="UTF-8"?>

<!-- Altered-Icons: (https://github.com/dot-alter/Altered-Icons-Pack) -->

<svg xmlns="http://www.w3.org/2000/svg" xmlns:svg="http://www.w3.org/2000/svg" xmlns:xlink="http://www.w3.org/1999/xlink" width="24" height="24" viewBox="0 0 24 24" preserveAspectRatio="xMidYMid meet">
	<g transform="matrix(1, 0, 0, 1, 11.999977111816406, 12)">
		<path transform="matrix(1, 0, 0, 1, 59.999996185302734, 35.99525451660156)" d="M-63.29,-45.17 C-66.08,-44.09 -68.08,-42.08 -69.18,-39.29 C-69.61,-38.17 -69.64,-37.01 -69.21,-35.96 L-69.21,-35.96 L-69.21,-35.95 C-68.11,-33.07 -66.05,-31.01 -63.17,-29.91 C-62.11,-29.48 -60.95,-29.51 -59.83,-29.95 L-59.83,-29.95 C-58.94,-30.3 -58.14,-30.75 -57.41,-31.28 C-57.33,-31.19 -55.3,-29.19 -54.5,-28.39 C-53.86,-27.87 -52.91,-27.97 -52.39,-28.62 C-51.87,-29.26 -51.97,-30.21 -52.61,-30.73 C-52.61,-30.73 -55.25,-33.34 -55.3,-33.38 C-54.76,-34.12 -54.3,-34.93 -53.95,-35.83 L-53.95,-35.83 C-53.51,-36.95 -53.48,-38.11 -53.9,-39.17 C-55,-42.06 -57.07,-44.13 -59.96,-45.23 L-59.96,-45.23 L-59.96,-45.23 C-61.02,-45.65 -62.18,-45.62 -63.29,-45.17 ZM-55.3,-38.63 C-55.13,-38.08 -55.02,-37.21 -55.34,-36.38 C-56.28,-34.01 -57.97,-32.28 -60.38,-31.34 C-61.01,-31.09 -61.89,-31.06 -62.62,-31.3 C-65.17,-32.27 -66.86,-33.97 -67.82,-36.52 Q-68.16,-37.66 -67.78,-38.74 C-66.82,-41.19 -65.19,-42.83 -62.75,-43.78 L-62.74,-43.78 L-62.74,-43.78 C-59.57,-45.04 -56.27,-41.17 -55.3,-38.63 Z" fill-rule="evenodd" style="fill:#F1F1F1;" />
	</g>
</svg>