<?xml version="1.0" encoding="UTF-8"?>

<!-- Altered-Icons: (https://github.com/dot-alter/Altered-Icons-Pack) -->

<svg xmlns="http://www.w3.org/2000/svg"
     xmlns:svg="http://www.w3.org/2000/svg" 
     xmlns:xlink="http://www.w3.org/1999/xlink" 
     width="24" 
     height="24" 
     viewBox="0 0 24 24" 
     preserveAspectRatio="xMidYMid meet">
	<g transform="matrix(1, 0, 0, 1, 11.999984741210938, 12)">
		<path transform="matrix(0.8168995380401611, 0, 0, 0.8168995380401611, 49.009159088134766, 29.41546630859375)" d="M-60,-45.18 C-60.83,-45.18 -61.5,-44.83 -61.5,-44 Q-61.93,-40.71 -61.93,-37.94 Q-64.7,-37.94 -68.01,-37.46 C-68.84,-37.46 -69.22,-36.79 -69.22,-35.96 C-69.22,-35.13 -68.84,-34.46 -68.01,-34.46 Q-64.7,-34.07 -61.93,-34.07 Q-61.93,-31.3 -61.5,-28 C-61.5,-27.18 -60.83,-26.79 -60,-26.79 C-59.17,-26.79 -58.5,-27.18 -58.5,-28 Q-58.07,-31.3 -58.07,-34.07 Q-55.3,-34.07 -52.01,-34.46 C-51.18,-34.46 -50.83,-35.13 -50.83,-35.96 C-50.83,-36.79 -51.18,-37.46 -52.01,-37.46 Q-55.3,-37.94 -58.07,-37.94 Q-58.07,-41 -58.5,-44 C-58.5,-44.83 -59.17,-45.18 -60,-45.18 Z" fill-rule="evenodd" style="fill:#F1F1F1;" />
	</g>
</svg>