<?xml version="1.0" encoding="UTF-8"?>
<!-- Created with Grafika (https://www.grafika.cc/) -->
<svg xmlns="http://www.w3.org/2000/svg" xmlns:svg="http://www.w3.org/2000/svg" xmlns:xlink="http://www.w3.org/1999/xlink" width="23.99" height="23.99" viewBox="0 0 23.99 23.99" preserveAspectRatio="xMidYMid meet">
	<g transform="matrix(1, 0, 0, 1, 11.995223999023438, 11.9952392578125)">
		<path d="M-5.75,-8.7 C-7.12,-8.11 -8.15,-7.03 -8.78,-5.58 Q-11.25,0.01 -8.78,5.58 C-8.15,7.03 -7.1,8.11 -5.74,8.69 Q-0,11.31 5.73,8.69 C7.1,8.11 8.14,7.03 8.77,5.58 Q11.23,0.01 8.77,-5.58 C8.14,-7.03 7.1,-8.11 5.74,-8.7 C1.94,-10.4 -1.96,-10.4 -5.75,-8.7 ZM5.13,-7.33 Q-0,-9.65 -5.16,-7.33 Q-6.7,-6.7 -7.41,-4.97 C-8.87,-1.63 -8.87,1.62 -7.41,4.98 Q-6.76,6.75 -5.14,7.32 C-1.68,8.87 1.67,8.87 5.13,7.32 Q6.66,6.66 7.4,4.98 C8.87,1.62 8.86,-1.62 7.4,-4.97 C6.89,-6.15 6.15,-6.89 5.13,-7.33 ZM4.75,3.43 C4.77,3.16 4.65,2.85 4.44,2.64 C3.73,1.71 2.93,0.86 2.15,0.01 C2.93,-0.84 3.73,-1.69 4.43,-2.62 C4.65,-2.83 4.76,-3.14 4.74,-3.42 C4.74,-3.46 4.74,-3.5 4.73,-3.53 C4.67,-3.84 4.51,-4.07 4.32,-4.27 C4.12,-4.46 3.89,-4.63 3.58,-4.68 C3.28,-4.74 2.91,-4.63 2.67,-4.39 C1.74,-3.68 0.9,-2.88 0.05,-2.1 C-0.82,-2.9 -1.68,-3.71 -2.63,-4.43 C-2.87,-4.68 -3.27,-4.78 -3.56,-4.7 C-3.86,-4.62 -4.06,-4.44 -4.23,-4.27 C-4.4,-4.09 -4.58,-3.9 -4.66,-3.6 C-4.74,-3.31 -4.64,-2.91 -4.4,-2.67 C-3.68,-1.72 -2.87,-0.86 -2.07,0.01 C-2.87,0.88 -3.68,1.74 -4.4,2.69 C-4.65,2.93 -4.75,3.32 -4.67,3.62 C-4.58,3.91 -4.41,4.11 -4.24,4.28 C-4.06,4.46 -3.87,4.63 -3.57,4.72 C-3.28,4.8 -2.88,4.69 -2.64,4.45 C-1.68,3.73 -0.82,2.92 0.05,2.12 C0.9,2.9 1.74,3.7 2.67,4.4 C2.92,4.65 3.28,4.76 3.59,4.7 C3.89,4.64 4.13,4.48 4.32,4.28 C4.51,4.09 4.68,3.86 4.74,3.55 C4.75,3.51 4.75,3.47 4.75,3.43 Z" fill-rule="evenodd" style="fill:#F1F1F1;" />
	</g>
</svg>