<?xml version="1.0" encoding="UTF-8"?>

<!-- Altered-Icons: (https://github.com/dot-alter/Altered-Icons-Pack) -->

<svg xmlns="http://www.w3.org/2000/svg" xmlns:svg="http://www.w3.org/2000/svg" xmlns:xlink="http://www.w3.org/1999/xlink" width="24" height="24" viewBox="0 0 24 24" preserveAspectRatio="xMidYMid meet">
	<g transform="matrix(1, 0, 0, 1, 11.999984741210938, 12)">
		<path transform="matrix(1, 0, 0, 1, 60, 36.004764556884766)" d="M-64.46,-45.73 C-65.6,-45.1 -65.85,-43.6 -65.76,-43.29 C-66.17,-43.18 -66.63,-43.12 -67.01,-42.99 C-68.26,-42.58 -69.09,-41.43 -69.45,-39.9 C-70.18,-37.32 -70.18,-34.7 -69.45,-32.12 C-69.09,-30.58 -68.26,-29.43 -67,-29.02 C-62.88,-27.62 -57.12,-27.62 -53,-29.02 C-51.74,-29.43 -50.91,-30.58 -50.55,-32.12 C-49.82,-34.7 -49.82,-37.32 -50.55,-39.9 C-50.91,-41.43 -51.74,-42.58 -52.99,-42.99 C-53.37,-43.12 -53.83,-43.18 -54.24,-43.29 C-54.17,-43.55 -54.4,-45.1 -55.51,-45.72 C-57.81,-46.99 -63.21,-46.42 -64.46,-45.73 ZM-53.47,-41.57 C-52.75,-41.31 -52.26,-40.62 -51.99,-39.51 C-51.48,-37.17 -51.48,-34.83 -52,-32.47 C-52.29,-31.23 -52.76,-30.68 -53.46,-30.45 C-53.47,-30.44 -61.37,-28.69 -66.53,-30.44 C-66.53,-30.44 -66.53,-30.45 -66.54,-30.45 C-67.24,-30.68 -67.71,-31.23 -68,-32.47 C-68,-32.49 -68,-32.5 -68.01,-32.51 C-68.67,-34.86 -68.67,-37.17 -68.01,-39.51 C-68,-39.52 -68,-39.53 -68,-39.54 C-67.71,-40.65 -67.22,-41.32 -66.53,-41.57 C-62.82,-42.82 -57.18,-42.82 -53.47,-41.57 ZM-60.67,-40.09 C-60.25,-40.39 -59.73,-40.39 -59.31,-40.09 C-59.1,-39.95 -58.95,-39.67 -58.95,-39.39 C-58.85,-38.66 -58.81,-37.93 -58.8,-37.19 C-58.11,-37.17 -57.39,-37.13 -56.61,-37.02 C-56.33,-37.02 -56.05,-36.87 -55.9,-36.66 C-55.61,-36.24 -55.61,-35.72 -55.9,-35.3 C-56.04,-35.1 -56.31,-34.96 -56.58,-34.95 C-56.57,-34.95 -56.57,-34.95 -56.56,-34.95 L-56.61,-34.95 C-56.6,-34.95 -56.59,-34.95 -56.58,-34.95 C-57.38,-34.86 -58.1,-34.82 -58.8,-34.81 C-58.81,-34.12 -58.85,-33.41 -58.95,-32.62 C-58.95,-32.33 -59.1,-32.06 -59.3,-31.91 C-59.72,-31.6 -60.26,-31.6 -60.67,-31.91 C-60.88,-32.06 -61.02,-32.33 -61.02,-32.62 C-61.12,-33.41 -61.16,-34.12 -61.18,-34.81 C-61.88,-34.82 -62.6,-34.86 -63.41,-34.95 C-63.4,-34.95 -63.39,-34.95 -63.38,-34.95 L-63.42,-34.95 C-63.42,-34.95 -63.41,-34.95 -63.41,-34.95 C-63.68,-34.96 -63.94,-35.1 -64.09,-35.3 C-64.39,-35.71 -64.39,-36.26 -64.09,-36.67 C-63.94,-36.88 -63.66,-37.02 -63.38,-37.02 C-62.59,-37.13 -61.87,-37.17 -61.18,-37.19 C-61.16,-37.88 -61.12,-38.6 -61.02,-39.39 C-61.02,-39.67 -60.88,-39.95 -60.67,-40.09 Z" fill-rule="evenodd" style="fill:#F1F1F1;" />
	</g>
</svg>